<?xml version="1.0" encoding="UTF-8" standalone="no"?>
<svg
   xmlns:dc="http://purl.org/dc/elements/1.1/"
   xmlns:cc="http://creativecommons.org/ns#"
   xmlns:rdf="http://www.w3.org/1999/02/22-rdf-syntax-ns#"
   xmlns:svg="http://www.w3.org/2000/svg"
   xmlns="http://www.w3.org/2000/svg"
   xmlns:sodipodi="http://sodipodi.sourceforge.net/DTD/sodipodi-0.dtd"
   xmlns:inkscape="http://www.inkscape.org/namespaces/inkscape"
   version="1.1"
   id="svg2"
   xml:space="preserve"
   width="600"
   height="650"
   viewBox="0 0 599.99999 650.00002"
   sodipodi:docname="home.svg"
   inkscape:version="1.0.2 (1.0.2+r75+1)"><metadata
     id="metadata8"><rdf:RDF><cc:Work
         rdf:about=""><dc:format>image/svg+xml</dc:format><dc:type
           rdf:resource="http://purl.org/dc/dcmitype/StillImage" /><dc:title></dc:title></cc:Work></rdf:RDF></metadata><defs
     id="defs6"><rect
       x="610.70099"
       y="3398.1777"
       width="1972.17"
       height="979.99249"
       id="rect1187" /><clipPath
       clipPathUnits="userSpaceOnUse"
       id="clipPath110"><path
         d="m 3389.06,1397.69 -59.69,127.13 c 21.34,-43.78 44.53,-90.84 59.69,-127.13 m -59.78,127.3 c -0.78,1.54 -13.37,26.21 -27.64,57.62 8.15,-17.53 17.7,-37.22 27.64,-57.62 m -43.98,95.22 c -8.1,19.65 -15.51,39.49 -20.27,56.38 0,0 0,0.02 -0.01,0.05 7.99,-19.07 13.11,-37.51 20.28,-56.43 m -45.31,101.03 c -17.69,22.35 -47.67,52.1 -98.36,87.03 v 0 c 49.82,-32.75 79.31,-61.03 98.36,-87.03 m -266.76,185.52 c -14.46,10.42 -27.69,22.36 -40.07,37.61 10.74,-12.73 23.96,-25.34 40.07,-37.61"
         id="path108" /></clipPath><clipPath
       clipPathUnits="userSpaceOnUse"
       id="clipPath128"><path
         d="m 2908.98,1980.59 c -12.42,22.46 -17.73,45.02 -18.58,66.38 h 1.35 c 0.83,-21.17 5.77,-43.67 17.23,-66.38"
         id="path126" /></clipPath></defs><sodipodi:namedview
     pagecolor="#ffffff"
     bordercolor="#666666"
     borderopacity="1"
     objecttolerance="10"
     gridtolerance="10"
     guidetolerance="10"
     inkscape:pageopacity="0"
     inkscape:pageshadow="2"
     inkscape:window-width="1294"
     inkscape:window-height="704"
     id="namedview4"
     showgrid="false"
     inkscape:zoom="0.81602374"
     inkscape:cx="330.91061"
     inkscape:cy="323.31862"
     inkscape:window-x="72"
     inkscape:window-y="27"
     inkscape:window-maximized="1"
     inkscape:current-layer="g12"
     units="px" /><g
     id="g10"
     inkscape:label="ink_ext_XXXXXX"
     transform="matrix(1.3333333,0,0,-1.3333333,0,674)"
     style="display:inline"
     inkscape:groupmode="layer"><g
       id="g12"
       transform="scale(0.1)"
       style="display:inline;opacity:1"><path
         d="m 0,54.9688 h 5000 v 5000 H 0 Z"
         style="display:none;fill:#f57c8f;fill-opacity:1;fill-rule:nonzero;stroke:none"
         id="path14" /><path
         d="m 3434.5433,1571.2829 10.07,-63.05 c 2.03,-12.77 14.37,-21.2 27.01,-18.46 11.5,2.49 19.14,13.41 17.54,25.07 l -10.64,77.53 -43.98,-21.09"
         style="display:inline;fill:#ffffff;fill-opacity:1;fill-rule:nonzero;stroke:none"
         id="path16" /><path
         d="m 2140.4833,374.23094 c -1141.13994,0 -2066.202943,39.442 -2066.202943,88.114 0,48.66 925.063003,88.097 2066.202943,88.097 1141.13,0 2066.19,-39.437 2066.19,-88.097 0,-48.672 -925.06,-88.114 -2066.19,-88.114"
         style="display:inline;fill:#5bb2f5;fill-opacity:1;fill-rule:nonzero;stroke:none"
         id="path18" /><path
         d="m 2886.6433,4153.4929 h -82.16 v -90.16 l 89.39,89.8"
         style="display:inline;fill:#f4f3f2;fill-opacity:1;fill-rule:nonzero;stroke:none"
         id="path26" /><path
         d="m 2724.9033,2039.0129 h -1406.25 v 2008.49 c 0,58.54 47.45,105.99 105.99,105.99 h 1379.84 v -2034.9 c 0,-43.95 -35.63,-79.58 -79.58,-79.58"
         style="display:inline;fill:#f4f3f2;fill-opacity:1;fill-rule:nonzero;stroke:none"
         id="path28" /><path
         d="m 2968.8033,3781.6629 h -164.32 v 289.67 c 0,45.38 36.78,82.16 82.16,82.16 45.37,0 82.16,-36.78 82.16,-82.16 v -289.67"
         style="display:inline;fill:#d2d4d1;fill-opacity:1;fill-rule:nonzero;stroke:none"
         id="path30" /><path
         d="m 1236.4933,2410.8429 h 164.32 v -289.67 c 0,-45.38 -36.79,-82.16 -82.16,-82.16 v 0 c -45.38,0 -82.16,36.78 -82.16,82.16 v 289.67"
         style="display:inline;fill:#ffffff;fill-opacity:1;fill-rule:nonzero;stroke:none"
         id="path32" /><path
         d="m 1318.6533,2039.0129 h 1403.67 v 371.832 h -1403.67 z"
         style="display:inline;fill:#ffffff;fill-opacity:1;fill-rule:nonzero;stroke:none"
         id="path34" /><path
         d="m 2640.1633,2410.8429 h 164.32 v -289.67 c 0,-45.38 -36.79,-82.16 -82.16,-82.16 -45.38,0 -82.16,36.78 -82.16,82.16 v 289.67"
         style="display:inline;fill:#d2d4d1;fill-opacity:1;fill-rule:nonzero;stroke:none"
         id="path36" /><path
         d="m 2394.4633,3943.4129 c -9.56,0 -17.33,-7.78 -17.33,-17.33 v -69.51 c 0,-9.55 7.77,-17.33 17.33,-17.33 h 69.5 c 9.56,0 17.34,7.78 17.34,17.33 v 69.51 c 0,9.55 -7.78,17.33 -17.34,17.33 z m 69.5,-114.17 h -69.5 c -15.07,0 -27.33,12.26 -27.33,27.33 v 69.51 c 0,15.06 12.26,27.33 27.33,27.33 h 69.5 c 15.07,0 27.34,-12.27 27.34,-27.33 v -69.51 c 0,-15.07 -12.27,-27.33 -27.34,-27.33"
         style="display:inline;fill:#ee2e32;fill-opacity:1;fill-rule:nonzero;stroke:none"
         id="path38" /><path
         d="m 2394.4633,3723.4129 c -9.56,0 -17.33,-7.78 -17.33,-17.33 v -69.51 c 0,-9.55 7.77,-17.33 17.33,-17.33 h 69.5 c 9.56,0 17.34,7.78 17.34,17.33 v 69.51 c 0,9.55 -7.78,17.33 -17.34,17.33 z m 69.5,-114.17 h -69.5 c -15.07,0 -27.33,12.26 -27.33,27.33 v 69.51 c 0,15.06 12.26,27.33 27.33,27.33 h 69.5 c 15.07,0 27.34,-12.27 27.34,-27.33 v -69.51 c 0,-15.07 -12.27,-27.33 -27.34,-27.33"
         style="display:inline;fill:#ee2e32;fill-opacity:1;fill-rule:nonzero;stroke:none"
         id="path40" /><path
         d="m 2394.4633,3503.4129 c -9.56,0 -17.33,-7.78 -17.33,-17.33 v -69.51 c 0,-9.55 7.77,-17.33 17.33,-17.33 h 69.5 c 9.56,0 17.34,7.78 17.34,17.33 v 69.51 c 0,9.55 -7.78,17.33 -17.34,17.33 z m 69.5,-114.17 h -69.5 c -15.07,0 -27.33,12.26 -27.33,27.33 v 69.51 c 0,15.06 12.26,27.33 27.33,27.33 h 69.5 c 15.07,0 27.34,-12.27 27.34,-27.33 v -69.51 c 0,-15.07 -12.27,-27.33 -27.34,-27.33"
         style="display:inline;fill:#ee2e32;fill-opacity:1;fill-rule:nonzero;stroke:none"
         id="path42" /><path
         d="m 2394.4633,3283.4129 c -9.56,0 -17.33,-7.78 -17.33,-17.33 v -69.51 c 0,-9.55 7.77,-17.33 17.33,-17.33 h 69.5 c 9.56,0 17.34,7.78 17.34,17.33 v 69.51 c 0,9.55 -7.78,17.33 -17.34,17.33 z m 69.5,-114.17 h -69.5 c -15.07,0 -27.33,12.26 -27.33,27.33 v 69.51 c 0,15.06 12.26,27.33 27.33,27.33 h 69.5 c 15.07,0 27.34,-12.27 27.34,-27.33 v -69.51 c 0,-15.07 -12.27,-27.33 -27.34,-27.33"
         style="display:inline;fill:#ee2e32;fill-opacity:1;fill-rule:nonzero;stroke:none"
         id="path44" /><path
         d="m 2394.4633,3063.4129 c -9.56,0 -17.33,-7.78 -17.33,-17.33 v -69.51 c 0,-9.55 7.77,-17.33 17.33,-17.33 h 69.5 c 9.56,0 17.34,7.78 17.34,17.33 v 69.51 c 0,9.55 -7.78,17.33 -17.34,17.33 z m 69.5,-114.17 h -69.5 c -15.07,0 -27.33,12.26 -27.33,27.33 v 69.51 c 0,15.06 12.26,27.33 27.33,27.33 h 69.5 c 15.07,0 27.34,-12.27 27.34,-27.33 v -69.51 c 0,-15.07 -12.27,-27.33 -27.34,-27.33"
         style="fill:#ee2e32;fill-opacity:1;fill-rule:nonzero;stroke:none"
         id="path46" /><path
         d="m 2394.4633,2843.4129 c -9.56,0 -17.33,-7.78 -17.33,-17.33 v -69.51 c 0,-9.55 7.77,-17.33 17.33,-17.33 h 69.5 c 9.56,0 17.34,7.78 17.34,17.33 v 69.51 c 0,9.55 -7.78,17.33 -17.34,17.33 z m 69.5,-114.17 h -69.5 c -15.07,0 -27.33,12.26 -27.33,27.33 v 69.51 c 0,15.06 12.26,27.33 27.33,27.33 h 69.5 c 15.07,0 27.34,-12.27 27.34,-27.33 v -69.51 c 0,-15.07 -12.27,-27.33 -27.34,-27.33"
         style="fill:#ee2e32;fill-opacity:1;fill-rule:nonzero;stroke:none"
         id="path48" /><path
         d="m 2394.4633,2623.4129 c -9.56,0 -17.33,-7.78 -17.33,-17.33 v -69.51 c 0,-9.56 7.77,-17.33 17.33,-17.33 h 69.5 c 9.56,0 17.34,7.77 17.34,17.33 v 69.51 c 0,9.55 -7.78,17.33 -17.34,17.33 z m 69.5,-114.17 h -69.5 c -15.07,0 -27.33,12.27 -27.33,27.33 v 69.51 c 0,15.06 12.26,27.33 27.33,27.33 h 69.5 c 15.07,0 27.34,-12.27 27.34,-27.33 v -69.51 c 0,-15.06 -12.27,-27.33 -27.34,-27.33"
         style="fill:#ee2e32;fill-opacity:1;fill-rule:nonzero;stroke:none"
         id="path50" /><path
         d="m 2268.8033,3891.3229 h -766.67 v 57.09 h 766.67 v -57.09"
         style="fill:#d2d4d1;fill-opacity:1;fill-rule:nonzero;stroke:none"
         id="path52" /><path
         d="m 2268.8033,3667.9929 h -766.67 v 57.08 h 766.67 v -57.08"
         style="fill:#d2d4d1;fill-opacity:1;fill-rule:nonzero;stroke:none"
         id="path54" /><path
         d="m 1812.1333,3575.4929 h -310 v 57.08 h 310 v -57.08"
         style="fill:#d2d4d1;fill-opacity:1;fill-rule:nonzero;stroke:none"
         id="path56" /><path
         d="m 2268.8033,3427.9929 h -766.67 v 57.08 h 766.67 v -57.08"
         style="fill:#d2d4d1;fill-opacity:1;fill-rule:nonzero;stroke:none"
         id="path58" /><path
         d="m 2268.8033,3240.0729 h -766.67 v 57.09 h 766.67 v -57.09"
         style="fill:#d2d4d1;fill-opacity:1;fill-rule:nonzero;stroke:none"
         id="path60" /><path
         d="m 2268.8033,3011.3229 h -766.67 v 57.09 h 766.67 v -57.09"
         style="fill:#d2d4d1;fill-opacity:1;fill-rule:nonzero;stroke:none"
         id="path62" /><path
         d="m 2268.8033,2925.7029 h -766.67 v 57.08 h 766.67 v -57.08"
         style="fill:#d2d4d1;fill-opacity:1;fill-rule:nonzero;stroke:none"
         id="path64" /><path
         d="m 2268.8033,2791.3229 h -766.67 v 57.09 h 766.67 v -57.09"
         style="fill:#d2d4d1;fill-opacity:1;fill-rule:nonzero;stroke:none"
         id="path66" /><path
         d="m 1913.8033,2705.7029 h -411.67 v 57.08 h 411.67 v -57.08"
         style="fill:#d2d4d1;fill-opacity:1;fill-rule:nonzero;stroke:none"
         id="path68" /><path
         d="m 2268.8033,2585.5929 h -766.67 v 57.09 h 766.67 v -57.09"
         style="display:inline;fill:#d2d4d1;fill-opacity:1;fill-rule:nonzero;stroke:none"
         id="path70" /><path
         d="m 1913.8033,2499.9729 h -411.67 v 57.08 h 411.67 v -57.08"
         style="display:inline;fill:#d2d4d1;fill-opacity:1;fill-rule:nonzero;stroke:none"
         id="path72" /><path
         d="m 1812.1333,3147.5729 h -310 v 57.09 h 310 v -57.09"
         style="display:inline;fill:#d2d4d1;fill-opacity:1;fill-rule:nonzero;stroke:none"
         id="path74" /><path
         d="m 2430.0533,3855.6729 -1.28,0.05 c -5.06,0.43 -9.56,3.4 -11.96,7.89 -5.41,10.13 -12.22,19.41 -20.27,27.58 -5.81,5.91 -5.73,15.4 0.17,21.21 5.9,5.81 15.4,5.74 21.22,-0.16 4.84,-4.93 9.34,-10.18 13.45,-15.72 25.55,31.66 52.94,62.17 81.63,90.9 5.86,5.87 15.36,5.87 21.22,0.02 5.86,-5.86 5.86,-15.35 0.02,-21.21 -32.82,-32.87 -63.89,-68.12 -92.36,-104.77 -2.85,-3.67 -7.23,-5.79 -11.84,-5.79"
         style="fill:#484a4c;fill-opacity:1;fill-rule:nonzero;stroke:none"
         id="path76" /><path
         d="m 2430.0533,3628.4529 -1.28,0.06 c -5.06,0.43 -9.56,3.4 -11.96,7.88 -5.41,10.14 -12.22,19.42 -20.27,27.59 -5.81,5.9 -5.73,15.4 0.17,21.21 5.9,5.81 15.4,5.73 21.22,-0.16 4.84,-4.93 9.34,-10.18 13.45,-15.72 25.55,31.64 52.93,62.15 81.63,90.89 5.86,5.87 15.36,5.87 21.22,0.02 5.86,-5.85 5.86,-15.35 0.02,-21.21 -32.83,-32.88 -63.9,-68.12 -92.36,-104.76 -2.85,-3.67 -7.23,-5.8 -11.84,-5.8"
         style="fill:#484a4c;fill-opacity:1;fill-rule:nonzero;stroke:none"
         id="path78" /><path
         d="m 2430.0533,2975.0929 -1.28,0.06 c -5.06,0.43 -9.56,3.4 -11.96,7.88 -5.41,10.15 -12.22,19.42 -20.26,27.58 -5.82,5.91 -5.74,15.4 0.16,21.21 5.9,5.82 15.41,5.73 21.21,-0.15 4.85,-4.93 9.35,-10.18 13.46,-15.72 25.55,31.64 52.93,62.15 81.63,90.89 5.86,5.87 15.36,5.87 21.22,0.02 5.86,-5.85 5.86,-15.35 0.02,-21.21 -32.83,-32.88 -63.9,-68.12 -92.36,-104.76 -2.85,-3.67 -7.23,-5.8 -11.84,-5.8"
         style="fill:#484a4c;fill-opacity:1;fill-rule:nonzero;stroke:none"
         id="path80" /><text
         xml:space="preserve"
         id="text1185"
         style="font-size:300px;line-height:1.25;font-family:sans-serif;word-spacing:0px;white-space:pre;shape-inside:url(#rect1187);display:inline;fill:#ffffff;fill-opacity:1;"
         transform="matrix(6.27426,0,0,-6.7882171,-3723.389,25733.928)"><tspan
           x="610.70117"
           y="3663.6074"><tspan
             style="font-style:normal;font-variant:normal;font-weight:normal;font-stretch:normal;font-family:Dyuthi;-inkscape-font-specification:Dyuthi;fill:#ffffff;fill-opacity:1">QUIZ</tspan></tspan></text><path
         d="m 2430.0533,2546.0629 -1.28,0.05 c -5.06,0.43 -9.56,3.4 -11.96,7.89 -5.41,10.13 -12.22,19.41 -20.27,27.58 -5.81,5.91 -5.73,15.4 0.17,21.21 5.9,5.81 15.4,5.74 21.22,-0.16 4.84,-4.93 9.34,-10.18 13.45,-15.72 25.55,31.66 52.94,62.17 81.63,90.9 5.86,5.87 15.36,5.87 21.22,0.02 5.86,-5.86 5.86,-15.35 0.02,-21.21 -32.82,-32.87 -63.89,-68.12 -92.36,-104.77 -2.85,-3.67 -7.23,-5.79 -11.84,-5.79"
         style="fill:#484a4c;fill-opacity:1;fill-rule:nonzero;stroke:none"
         id="path82" /><path
         d="m 3040.8233,1206.8729 12.12,-50.43 c 0,0 15.03,-76.12 45.09,-90.18 30.06,-14.06 15.03,99.88 12.61,106.18 -2.42,6.31 -11.04,76.12 -17.65,86.26 -6.61,10.14 -9.51,4.13 -44.91,-6.88 0,0 -15.12,-12.24 -7.26,-44.95"
         style="fill:#040606;fill-opacity:1;fill-rule:nonzero;stroke:none"
         id="path84" /><path
         d="m 3361.2733,1685.4429 c 0,0 -40.62,-14.57 -44.98,-45.11 -4.37,-30.55 183.27,-112 183.27,-112 0,0 8.73,0.36 0,11.63 l -65.45,77.1 c 0,0 -24.28,38.54 -43.96,45.81 -16.41,6.07 -28.88,22.57 -28.88,22.57"
         style="fill:#040606;fill-opacity:1;fill-rule:nonzero;stroke:none"
         id="path86" /><path
         d="m 3040.8233,1293.4229 10.8,-52.19 7.48,-4.66 c 11.13,-6.94 25.81,-2.86 31.78,8.82 v 54.72 l -50.06,-6.69"
         style="fill:#ffffff;fill-opacity:1;fill-rule:nonzero;stroke:none"
         id="path88" /><path
         d="m 2885.8233,3104.4729 c 0,-22.44 -18.19,-40.62 -40.62,-40.62 -22.44,0 -40.63,18.18 -40.63,40.62 0,22.44 18.19,40.63 40.63,40.63 22.43,0 40.62,-18.19 40.62,-40.63"
         style="display:inline;fill:#171717;fill-opacity:1;fill-rule:nonzero;stroke:none"
         id="path90" /><path
         d="m 2929.3533,2938.6629 c 0,-22.44 -18.18,-40.63 -40.62,-40.63 -22.44,0 -40.63,18.19 -40.63,40.63 0,22.43 18.19,40.62 40.63,40.62 22.44,0 40.62,-18.19 40.62,-40.62"
         style="fill:#171717;fill-opacity:1;fill-rule:nonzero;stroke:none"
         id="path92" /><path
         d="m 2922.6933,2996.9929 c 0,-22.44 -18.19,-40.63 -40.63,-40.63 -22.43,0 -40.62,18.19 -40.62,40.63 0,22.44 18.19,40.62 40.62,40.62 22.44,0 40.63,-18.18 40.63,-40.62"
         style="display:inline;fill:#171717;fill-opacity:1;fill-rule:nonzero;stroke:none"
         id="path94" /><path
         d="m 2912.5933,2714.2829 c 2.66,3.74 4.16,5.84 5.31,7.7 l 0.16,0.25 c 4.24,-0.48 8.53,-0.42 12.74,0.39 2.63,0.57 5.28,1 7.96,1.29 2.43,0.17 3.7,0.27 3.96,0.33 2.94,-0.3 6.16,-0.86 7.42,-1 9.66,-1.09 19.19,-3.13 28.65,-5.28 11.07,-2.51 55.23,-32.03 64.13,-26.27 l 263.08,-418.06 -22.48,-39.36 -445.39,436.64 c 0,0 65.95,31.38 74.46,43.37"
         style="fill:#fabc87;fill-opacity:1;fill-rule:nonzero;stroke:none"
         id="path96" /><path
         d="m 2429.6233,2575.7629 c -3.2,3.3 -5,5.14 -6.43,6.8 l -0.19,0.22 c -4.12,-1.12 -8.36,-1.71 -12.65,-1.57 -2.69,0.17 -5.38,0.18 -8.06,0.06 -2.43,-0.21 -3.71,-0.3 -3.97,-0.28 -2.86,-0.75 -5.95,-1.8 -7.18,-2.13 -9.38,-2.56 -18.48,-6.04 -27.5,-9.61 -10.56,-4.18 -21.39,-3.04 -31.07,1.3 l -224.11,-490.56 28.25,-35.45 373.15,499.79 c 0,0 -69.99,20.89 -80.24,31.43"
         style="fill:#fabc87;fill-opacity:1;fill-rule:nonzero;stroke:none"
         id="path98" /><path
         d="m 3383.8733,1729.8829 -22.6,-44.44 c -2.71,-12.64 14.95,-42.95 27.72,-44.96 l 20.6,-3.25 22.91,96.42 -48.63,-3.77"
         style="fill:#ffffff;fill-opacity:1;fill-rule:nonzero;stroke:none"
         id="path100" /><path
         d="m 3571.9433,2256.5429 c -72.09,2.9 -293.47,-4.04 -470.32,-104.48 -129.88,-73.76 -533.28,-58.79 -533.28,-58.79 0,0 -137.94,-181.24 101.81,-302.2 239.76,-120.96 224.64,-185.75 257.04,-261.35 25.62,-59.79 82.63,-166.65 105.76,-227.57 6.48,-17.07 25.61,-25.59 42.47,-18.55 l 0.49,0.2 c 10.59,4.42 18.01,14.14 19.48,25.52 11.33,88.34 42.6,336.86 40.07,370.52 -3.07,41.03 -134.01,215.99 -134.01,215.99 0,0 273.23,21.6 383.39,101.52 0,0 11.06,-150.12 -0.82,-196.56 -4.87,-19.06 -11.73,-46.42 -18.14,-72.11 21.22,-9.17 41.16,-20.96 61.29,-32.49 48.69,79 185.67,306.59 209.57,404.84 29.16,119.88 -10.53,153.34 -64.8,155.51"
         style="fill:#1b334c;fill-opacity:1;fill-rule:nonzero;stroke:none"
         id="path102" /><g
         id="g104"
         style="display:inline"
         transform="translate(-362.76664,-78.917061)"><g
           id="g106"
           clip-path="url(#clipPath110)"><path
             d="m 2933.16,1397.69 h 455.898 v 546.68 H 2933.16 Z"
             style="fill:#9f697f;fill-opacity:1;fill-rule:nonzero;stroke:none"
             id="path112" /><g
             id="g114"
             transform="scale(10)"><text
               transform="matrix(1,0,0,-1,48.0445,93.352)"
               style="font-variant:normal;font-weight:normal;font-size:178.152px;font-family:Baloo;-inkscape-font-specification:Baloo;writing-mode:lr-tb;fill:#9eb4be;fill-opacity:1;fill-rule:nonzero;stroke:none"
               id="text118"><tspan
                 x="0 0 0 0 0 0 0 0 0 118.46902 229.63403 276.84302"
                 y="0 0 0 0 0 0 0 0 0"
                 sodipodi:role="line"
                 id="tspan116"><tspan
   style="font-style:normal;font-variant:normal;font-weight:normal;font-stretch:normal;font-family:'DejaVu Sans Mono';-inkscape-font-specification:'DejaVu Sans Mono'"
   id="tspan1163">QQdffdsfQ</tspan>UIZ</tspan></text></g></g></g><path
         d="m 2528.9833,1968.0529 h -1.35 c -1.05,26.28 4.64,50.76 12.07,70.96 h 0.75 c -7.11,-20.08 -12.51,-44.48 -11.47,-70.96"
         style="fill:#9f697f;fill-opacity:1;fill-rule:nonzero;stroke:none"
         id="path120" /><g
         id="g122"
         style="display:inline"
         transform="translate(-362.76664,-78.917061)"><g
           id="g124"
           clip-path="url(#clipPath128)"><path
             d="m 2890.4,1980.59 h 18.582 v 66.3789 H 2890.4 Z"
             style="fill:#9f697f;fill-opacity:1;fill-rule:nonzero;stroke:none"
             id="path130" /><g
             id="g132"
             transform="scale(10)" /></g></g><path
         d="m 2540.4533,2039.0129 h -0.75 c 12.01,32.67 28.59,54.2 28.64,54.25 -0.05,-0.06 -16.26,-21.38 -27.89,-54.25"
         style="fill:#9eb4be;fill-opacity:1;fill-rule:nonzero;stroke:none"
         id="path138" /><path
         d="m 3063.9033,1281.3029 c -7.15,0 -15.58,3.1 -25.35,11.36 l -12.26,26.11 c -15.16,36.29 -38.35,83.35 -59.69,127.13 l -0.05,0.1 c 0,0 -0.01,0.02 -0.04,0.07 -9.94,20.4 -19.49,40.09 -27.64,57.62 -5.38,11.87 -11.01,24.69 -16.34,37.6 -7.17,18.92 -12.29,37.36 -20.28,56.43 -0.17,0.97 -3.37,17.22 -25.03,44.6 -19.05,26 -48.54,54.28 -98.36,87.03 -73.03,50.32 -125.99,67.91 -168.4,98.49 -16.11,12.27 -29.33,24.88 -40.07,37.61 -8.39,10.32 -16.38,22.16 -24.1,36.09 -0.03,0.04 -0.05,0.08 -0.08,0.13 -11.46,22.71 -16.4,45.21 -17.23,66.38 -1.04,26.48 4.36,50.88 11.47,70.96 11.63,32.87 27.84,54.19 27.89,54.25 v 0.01 l 262.81,-84.81 c 0,0 -26.51,-93.8 93.05,-193.57 119.57,-99.77 210.49,-176.14 201.45,-255.13 l -30.26,-250.44 v 0 0 c 0,0 -9.97,-28.02 -31.49,-28.02"
         style="display:inline;fill:#213d59;fill-opacity:1;fill-rule:nonzero;stroke:none"
         id="path140" /><path
         d="m 2836.1433,2718.8829 55.67,-48.85 c 124.32,-109.08 204.19,-260.05 224.43,-424.2 l 10.03,-81.32 -679.94,-67.66 31.52,548.12 358.29,73.91"
         style="fill:#5c268e;fill-opacity:1;fill-rule:nonzero;stroke:none"
         id="path142" /><path
         d="m 3126.2733,2164.5129 c 0,0 -39.02,-11.45 -110.13,-105.91 -112.82,-149.86 -528.43,-86.73 -569.81,38.25 -41.39,124.98 679.94,67.66 679.94,67.66"
         style="fill:#5c268e;fill-opacity:1;fill-rule:nonzero;stroke:none"
         id="path144" /><path
         d="m 2491.1833,2481.4129 -44.85,-52.28 -155.15,71.55 c 0,0 100,223.56 321.67,243.54 l 184.36,4.22 29.68,-61.3 -335.71,-205.73"
         style="fill:#5c268e;fill-opacity:1;fill-rule:nonzero;stroke:none"
         id="path146" /><path
         d="m 2992.3933,2509.9529 48.78,-80.82 141.67,71.55 c 0,0 -76.67,250.3 -321.67,243.54 l -184.36,4.22 -29.68,-61.3 345.26,-177.19"
         style="fill:#5c268e;fill-opacity:1;fill-rule:nonzero;stroke:none"
         id="path148" /><path
         d="m 3742.4633,2257.4429 -2356.33,-409.8 -37.85,217.96 2356.33,409.8 37.85,-217.96"
         style="fill:#f7f574;fill-opacity:1;fill-rule:nonzero;stroke:none"
         id="path150" /><path
         d="m 3742.4633,2257.4429 308.69,165.88 -346.54,52.08 c -16.7,-56.38 -11.81,-116.13 13.79,-168.62 l 24.06,-49.34"
         style="fill:#fbc351;fill-opacity:1;fill-rule:nonzero;stroke:none"
         id="path152" /><path
         d="m 3960.2733,2436.9729 c 0,0 -12.77,-19.86 -7.2,-34.79 5.57,-14.94 17.13,-22.36 17.13,-22.36 l 80.95,43.5 -90.88,13.65"
         style="fill:#171717;fill-opacity:1;fill-rule:nonzero;stroke:none"
         id="path154" /><path
         d="m 1122.1634,2026.3229 226.1199,39.28 37.85,-217.96 -226.12,-39.27 -37.8499,217.95"
         style="fill:#171717;fill-opacity:1;fill-rule:nonzero;stroke:none"
         id="path156" /><path
         d="m 1226.8233,1819.9729 -33.4,-5.8 -37.86,217.96 33.41,5.8 37.85,-217.96"
         style="display:inline;fill:#f3f020;fill-opacity:1;fill-rule:nonzero;stroke:none"
         id="path158" /><path
         d="m 1325.7533,1837.1529 -33.41,-5.8 -37.85,217.96 33.4,5.8 37.86,-217.96"
         style="fill:#f3f020;fill-opacity:1;fill-rule:nonzero;stroke:none"
         id="path160" /><path
         d="m 1098.1234,1797.6229 61.8899,10.75 -37.8499,217.95 -61.89,-10.74 c -60.19,-10.46 -100.51004,-67.72 -90.05004,-127.91 v 0 c 10.45,-60.19 67.71004,-100.5 127.90004,-90.05"
         style="fill:#f14a5a;fill-opacity:1;fill-rule:nonzero;stroke:none"
         id="path162" /><path
         d="m 1608.1533,1954.5229 -128.11,-22.24 c -19.18,-3.34 -37.6,9.63 -40.93,28.81 -3.33,19.18 9.64,37.6 28.82,40.93 l 128.1,22.25 c 19.18,3.33 37.6,-9.63 40.93,-28.82 3.33,-19.18 -9.63,-37.59 -28.81,-40.93"
         style="fill:#171717;fill-opacity:1;fill-rule:nonzero;stroke:none"
         id="path164" /><path
         d="m 2083.8933,1953.0329 c 3.7,0.05 7.17,-0.19 10.44,-0.64 8.51,8.28 35.14,34.31 37.68,38.16 3.03,4.58 2.24,10.08 -5.68,8.11 -7.91,-1.96 -40.01,-33.98 -40.01,-33.98 0,0 20.23,41.87 26.45,52.43 6.22,10.55 3.56,27.09 -5.41,17.84 -8.97,-9.24 -33.76,-58.36 -33.76,-58.36 0,0 15.74,59.56 21.34,71.2 5.6,11.65 -3.68,16.96 -11.08,14.17 -7.39,-2.78 -36.96,-90.54 -36.96,-90.54 0,0 9.88,55.6 15.06,73.6 5.18,17.99 -7.31,24.63 -14.12,16.53 -6.03,-7.18 -24.94,-91.21 -29.13,-110.1 14.36,-5.16 52.7,1.39 65.18,1.58"
         style="fill:#fabc87;fill-opacity:1;fill-rule:nonzero;stroke:none"
         id="path166" /><path
         d="m 2582.8533,3037.6129 c 0,0 -35.63,14.12 -46.25,-17.7 -10.63,-31.82 -2.5,-96.34 52.5,-113.46 55,-17.11 47.22,40.63 47.22,40.63 l -53.47,90.53"
         style="fill:#fabc87;fill-opacity:1;fill-rule:nonzero;stroke:none"
         id="path168" /><path
         d="m 3349.7633,2163.7529 c -3.67,-0.51 -7.06,-1.28 -10.23,-2.23 -9.67,6.87 -39.98,28.51 -43.08,31.93 -3.69,4.06 -3.76,9.61 4.36,8.88 8.13,-0.72 44.76,-27.43 44.76,-27.43 0,0 -26.42,38.27 -34.18,47.74 -7.76,9.48 -7.67,26.23 2.61,18.47 10.28,-7.76 42.31,-52.49 42.31,-52.49 0,0 -24.69,56.43 -32.01,67.08 -7.32,10.65 1.04,17.32 8.77,15.7 7.74,-1.62 50.42,-83.8 50.42,-83.8 0,0 -18.3,53.43 -26.17,70.42 -7.88,16.98 3.45,25.46 11.41,18.5 7.07,-6.17 38.64,-86.31 45.68,-104.33 -13.4,-7.3 -52.29,-6.71 -64.65,-8.44"
         style="fill:#fabc87;fill-opacity:1;fill-rule:nonzero;stroke:none"
         id="path170" /><path
         d="m 2904.4733,2978.9629 c 4.51,-57.19 -3.44,-110.35 -84.16,-159.12 0,0 -38.5,-49.3 -18.31,-108.2 20.19,-58.89 -145.78,-74.44 -131.05,11.93 14.73,86.37 -38.09,177.62 -74.69,228.61 -36.6,50.99 -38,166.67 26.37,212.15 25.3,17.87 93.53,19.4 139.92,3.21 78.7,-27.48 135.35,-105.48 141.92,-188.58"
         style="fill:#fabc87;fill-opacity:1;fill-rule:nonzero;stroke:none"
         id="path172" /><path
         d="m 2807.1333,3056.8229 -5,-0.05 c 0.43,-35.34 29.19,-63.69 64.44,-63.69 h 0.76 c 35.35,0.42 63.7,29.19 63.7,64.43 v 0.77 0.01 c -0.42,35.33 -29.19,63.68 -64.44,63.69 l -0.78,-0.01 c -35.33,-0.42 -63.68,-29.18 -63.68,-64.43 l 0.01,-0.8 -0.01,0.03 5,0.05 5,0.09 v 0.63 c 0,29.77 23.96,54.09 53.81,54.43 l 0.65,0.01 c 29.77,0 54.09,-23.96 54.44,-53.81 v 0.01 -0.67 c 0,-29.77 -23.96,-54.08 -53.81,-54.43 h -0.65 c -29.77,-0.01 -54.09,23.95 -54.44,53.8 v 0.03 l -5,-0.09"
         style="fill:#171717;fill-opacity:1;fill-rule:nonzero;stroke:none"
         id="path174" /><path
         d="m 2657.7333,3055.0629 -5,-0.06 c 0.42,-35.34 29.19,-63.69 64.43,-63.69 h 0.77 c 35.34,0.43 63.69,29.19 63.7,64.44 l -0.01,0.76 v 0.01 c -0.42,35.34 -29.18,63.69 -64.43,63.69 h -0.78 c -35.33,-0.42 -63.68,-29.19 -63.69,-64.43 l 0.01,-0.8 v 0.02 l 5,0.06 5,0.08 -0.01,0.64 c 0,29.76 23.96,54.08 53.81,54.43 h 0.66 c 29.77,0.01 54.08,-23.96 54.43,-53.81 v 0.01 l 0.01,-0.66 c 0,-29.77 -23.96,-54.09 -53.81,-54.44 h -0.66 c -29.77,0 -54.08,23.96 -54.43,53.81 v 0.09 -0.07 l -5,-0.08"
         style="display:inline;fill:#171717;fill-opacity:1;fill-rule:nonzero;stroke:none"
         id="path176" /><path
         d="m 2792.5333,3104.4729 44.76,-116.02 -62.97,-0.75 z"
         style="fill:#f24f52;fill-opacity:1;fill-rule:nonzero;stroke:none"
         id="path178" /><path
         d="m 2818.9333,3098.0629 -55.04,-0.65 0.11,-9.99 55.05,0.65"
         style="fill:#171717;fill-opacity:1;fill-rule:nonzero;stroke:none"
         id="path180" /><path
         d="m 2831.3833,3056.6729 c 1.68,-6.43 6.66,-10.7 11.13,-9.53 4.46,1.17 6.72,7.33 5.04,13.76 -1.68,6.42 -6.67,10.69 -11.13,9.52 -4.47,-1.17 -6.72,-7.33 -5.04,-13.75"
         style="fill:#040606;fill-opacity:1;fill-rule:nonzero;stroke:none"
         id="path182" /><path
         d="m 2729.5233,3051.6129 c 1.68,-6.43 6.66,-10.7 11.13,-9.53 4.46,1.17 6.72,7.33 5.04,13.76 -1.69,6.42 -6.67,10.69 -11.13,9.52 -4.47,-1.17 -6.72,-7.33 -5.04,-13.75"
         style="fill:#040606;fill-opacity:1;fill-rule:nonzero;stroke:none"
         id="path184" /><path
         d="m 2680.3533,2947.0829 c 0,-22.44 -18.19,-40.63 -40.63,-40.63 -22.44,0 -40.62,18.19 -40.62,40.63 0,22.43 18.18,40.62 40.62,40.62 22.44,0 40.63,-18.19 40.63,-40.62"
         style="fill:#171717;fill-opacity:1;fill-rule:nonzero;stroke:none"
         id="path186" /><path
         d="m 2652.2533,2979.2829 c 0,-22.44 -18.19,-40.62 -40.63,-40.62 -22.43,0 -40.62,18.18 -40.62,40.62 0,22.44 18.19,40.63 40.62,40.63 22.44,0 40.63,-18.19 40.63,-40.63"
         style="fill:#171717;fill-opacity:1;fill-rule:nonzero;stroke:none"
         id="path188" /><path
         d="m 2639.7233,3037.6129 c 0,-22.43 -18.19,-40.62 -40.62,-40.62 -22.44,0 -40.63,18.19 -40.63,40.62 0,22.44 18.19,40.63 40.63,40.63 22.43,0 40.62,-18.19 40.62,-40.63"
         style="fill:#171717;fill-opacity:1;fill-rule:nonzero;stroke:none"
         id="path190" /><path
         d="m 2845.2033,3145.1029 c 0,-22.44 -18.19,-40.63 -40.63,-40.63 -22.44,0 -40.62,18.19 -40.62,40.63 0,22.43 18.18,40.62 40.62,40.62 22.44,0 40.63,-18.19 40.63,-40.62"
         style="fill:#171717;fill-opacity:1;fill-rule:nonzero;stroke:none"
         id="path192" /><path
         d="m 2710.3533,2894.5829 c 0,-22.44 -18.19,-40.63 -40.63,-40.63 -22.44,0 -40.62,18.19 -40.62,40.63 0,22.43 18.18,40.62 40.62,40.62 22.44,0 40.63,-18.19 40.63,-40.62"
         style="display:inline;fill:#171717;fill-opacity:1;fill-rule:nonzero;stroke:none"
         id="path194" /><path
         d="m 2769.5933,2847.0829 c 0,-22.44 -18.19,-40.63 -40.63,-40.63 -22.43,0 -40.62,18.19 -40.62,40.63 0,22.43 18.19,40.62 40.62,40.62 22.44,0 40.63,-18.19 40.63,-40.62"
         style="fill:#171717;fill-opacity:1;fill-rule:nonzero;stroke:none"
         id="path196" /><path
         d="m 2835.2733,2820.4129 c 0,-22.43 -18.18,-40.62 -40.62,-40.62 -22.44,0 -40.63,18.19 -40.63,40.62 0,22.44 18.19,40.63 40.63,40.63 22.44,0 40.62,-18.19 40.62,-40.63"
         style="fill:#171717;fill-opacity:1;fill-rule:nonzero;stroke:none"
         id="path198" /><path
         d="m 2905.4733,2837.7329 c 0,-22.43 -18.19,-40.62 -40.63,-40.62 -22.43,0 -40.62,18.19 -40.62,40.62 0,22.44 18.19,40.63 40.62,40.63 22.44,0 40.63,-18.19 40.63,-40.63"
         style="fill:#171717;fill-opacity:1;fill-rule:nonzero;stroke:none"
         id="path200" /><path
         d="m 2929.3533,2880.3229 c 0,-22.43 -18.18,-40.62 -40.62,-40.62 -22.44,0 -40.63,18.19 -40.63,40.62 0,22.44 18.19,40.63 40.63,40.63 22.44,0 40.62,-18.19 40.62,-40.63"
         style="display:inline;fill:#171717;fill-opacity:1;fill-rule:nonzero;stroke:none"
         id="path202" /><path
         d="m 2930.6533,2956.9129 c 0,-22.44 -18.19,-40.63 -40.63,-40.63 -22.43,0 -40.62,18.19 -40.62,40.63 0,22.43 18.19,40.62 40.62,40.62 22.44,0 40.63,-18.19 40.63,-40.62"
         style="fill:#171717;fill-opacity:1;fill-rule:nonzero;stroke:none"
         id="path204" /><path
         d="m 2877.9133,2906.4529 c 0,-22.43 -18.18,-40.62 -40.62,-40.62 -22.44,0 -40.63,18.19 -40.63,40.62 0,22.44 18.19,40.63 40.63,40.63 22.44,0 40.62,-18.19 40.62,-40.63"
         style="fill:#171717;fill-opacity:1;fill-rule:nonzero;stroke:none"
         id="path206" /><path
         d="m 2835.2733,2861.0429 c 0,-22.44 -18.18,-40.63 -40.62,-40.63 -22.44,0 -40.63,18.19 -40.63,40.63 0,22.43 18.19,40.62 40.63,40.62 22.44,0 40.62,-18.19 40.62,-40.62"
         style="fill:#171717;fill-opacity:1;fill-rule:nonzero;stroke:none"
         id="path208" /><path
         d="m 2759.3233,2887.7029 c 0,-22.43 -18.19,-40.62 -40.62,-40.62 -22.44,0 -40.63,18.19 -40.63,40.62 0,22.44 18.19,40.63 40.63,40.63 22.43,0 40.62,-18.19 40.62,-40.63"
         style="fill:#171717;fill-opacity:1;fill-rule:nonzero;stroke:none"
         id="path210" /><path
         d="m 2728.9633,2942.2929 c 0,-22.44 -18.19,-40.63 -40.62,-40.63 -22.44,0 -40.63,18.19 -40.63,40.63 0,22.43 18.19,40.62 40.63,40.62 22.43,0 40.62,-18.19 40.62,-40.62"
         style="fill:#171717;fill-opacity:1;fill-rule:nonzero;stroke:none"
         id="path212" /><path
         d="m 2804.5733,2935.2029 c 0,-22.43 -18.19,-40.62 -40.62,-40.62 -22.44,0 -40.63,18.19 -40.63,40.62 0,22.44 18.19,40.63 40.63,40.63 22.43,0 40.62,-18.19 40.62,-40.63"
         style="fill:#171717;fill-opacity:1;fill-rule:nonzero;stroke:none"
         id="path214" /><path
         d="m 2871.4533,2935.2029 c 0,-22.43 -18.19,-40.62 -40.63,-40.62 -22.43,0 -40.62,18.19 -40.62,40.62 0,22.44 18.19,40.63 40.62,40.63 22.44,0 40.63,-18.19 40.63,-40.63"
         style="fill:#171717;fill-opacity:1;fill-rule:nonzero;stroke:none"
         id="path216" /><path
         d="m 2810.2133,2887.7029 c 0,-22.43 -18.19,-40.62 -40.62,-40.62 -22.44,0 -40.63,18.19 -40.63,40.62 0,22.44 18.19,40.63 40.63,40.63 22.43,0 40.62,-18.19 40.62,-40.63"
         style="fill:#171717;fill-opacity:1;fill-rule:nonzero;stroke:none"
         id="path218" /><path
         d="m 2810.6633,2939.7629 c 0,0 16.4,8.98 30.25,8.72 13.85,-0.27 27.16,-5.63 29.48,-23.12 2.33,-17.49 -15.12,-29.95 -36.19,-40.02 -12.43,-5.94 -54.1,-11.94 -76.29,-0.49 -22.18,11.45 -33.73,20.39 -38.26,35.73 -4.54,15.34 7.96,30.48 20.08,34.56 12.12,4.08 24.35,-2.16 29.99,-6.92 5.65,-4.75 19.44,-16.31 40.94,-8.46"
         style="display:inline;fill:#ffffff;fill-opacity:1;fill-rule:nonzero;stroke:none"
         id="path220" /><path
         d="m 2559.9133,3106.0129 -2.21,5.2 c -28.33,66.92 2.03,144.21 68.33,173.97 v 0 c 67.33,30.22 146.41,0.12 176.61,-67.22 l 6.4,-14.28 -249.13,-97.67"
         style="display:inline;fill:#361f16;fill-opacity:1;fill-rule:nonzero;stroke:none"
         id="path222" /><path
         d="m 2563.9033,3048.8129 266.63,100.89 c 17.28,6.54 28.27,23.58 27.09,42.02 l -0.61,18.84 c -1.07,16.72 -18.35,27.36 -33.76,20.78 l -310.06,-122.91 c -17.01,-7.26 -19.98,-30.11 -5.39,-41.48 l 15.38,-11.98 c 11.57,-9.02 27,-11.35 40.72,-6.16"
         style="display:inline;fill:#593115;fill-opacity:1;fill-rule:nonzero;stroke:none"
         id="path224" /><path
         d="m 2547.1833,3159.8729 233.9,91.67 10.39,-13.51 -244.37,-98.33 0.08,20.17"
         style="display:inline;fill:#ffffff;fill-opacity:1;fill-rule:nonzero;stroke:none"
         id="path226" /><path
         d="m 4035.6833,454.41494 c 0,0 -16.33,33.797 -61.08,29.43 -44.75,-4.371 -33.04,35.988 -83.17,42.527 -50.12,6.551 -59.19,-8.269 -120.15,42.941 -60.97,51.211 -111.61,-40.25 -156.97,-2.308 -45.37,37.93 -77.86,99.047 -154.68,75.367 -76.83,-23.68 -44.46,-84.16 -89.98,-106.957 -45.51,-22.812 -92.93,-30.203 -112.14,-82.191 l 778.17,1.191"
         style="display:inline;fill:#40bb6a;fill-opacity:1;fill-rule:nonzero;stroke:none"
         id="path228" /><path
         d="m 1607.6733,471.07494 c 0,0 16.34,33.809 61.09,29.438 44.74,-4.371 33.04,35.98 83.16,42.531 50.13,6.551 59.19,-8.27 120.16,42.941 60.97,51.207 111.61,-40.254 156.97,-2.32 45.36,37.938 77.85,99.059 154.68,75.379 76.83,-23.68 44.46,-84.172 89.97,-106.969 45.51,-22.801 92.93,-30.191 112.15,-82.183 l -778.18,1.183"
         style="display:inline;fill:#40bb6a;fill-opacity:1;fill-rule:nonzero;stroke:none"
         id="path230" /><path
         d="m 4102.3933,3836.0529 h -805.05 c 0,0 40.25,97.14 90.57,101.17 50.31,4.02 64.4,-26.91 80.5,-23.89 16.11,3.02 42.27,83.16 106.67,87.18 64.41,4.03 89.57,-56.03 124.79,-67.1 35.22,-11.07 104.65,-4.88 159,82.67 54.34,87.55 157.38,-6.47 160,-73.91 4.02,-103.65 162.02,-46.12 162.02,-106.12 h -78.5"
         style="display:inline;fill:#ffffff;fill-opacity:1;fill-rule:nonzero;stroke:none"
         id="path232" /><path
         d="m 912.39336,2936.0529 h -805.051 c 0,0 40.254,97.14 90.571,101.17 50.312,4.02 64.402,-26.91 80.504,-23.89 16.101,3.02 42.265,83.16 106.671,87.18 64.403,4.03 89.559,-56.04 124.782,-67.1 35.222,-11.07 104.656,-4.88 158.993,82.67 54.35,87.55 157.39,-6.47 160.01,-73.91 4.02,-103.65 162.02,-46.12 162.02,-106.12 h -78.5"
         style="display:inline;fill:#ffffff;fill-opacity:1;fill-rule:nonzero;stroke:none"
         id="path234" /><path
         d="m 1028.5734,4295.4429 c 0,-237.82 -192.80004,-430.62 -430.61704,-430.62 -237.821,0 -430.614,192.8 -430.614,430.62 0,237.82 192.793,430.61 430.614,430.61 237.817,0 430.61704,-192.79 430.61704,-430.61"
         style="display:inline;fill:#f7f574;fill-opacity:1;fill-rule:nonzero;stroke:none"
         id="path236" /><path
         d="m 3944.77,3118.06 -125.92,127.77 c -15.67,13.88 -25.6,34.09 -25.6,56.67 0,41.84 33.92,75.76 75.76,75.76 41.84,0 75.76,-33.92 75.76,-75.76 0,-1.75 -0.15,-3.46 -0.26,-5.18 l 0.52,0.08 c -0.12,1.69 -0.26,3.38 -0.26,5.1 0,41.84 33.92,75.76 75.76,75.76 41.84,0 75.76,-33.92 75.76,-75.76 0,-18.65 -6.77,-35.7 -17.95,-48.9 l 0.03,-0.03 -0.63,-0.64 c -2.06,-2.37 -4.27,-4.59 -6.61,-6.69 l -126.36,-128.18"
         style="display:none;fill:#f9abb6;fill-opacity:1;fill-rule:nonzero;stroke:none"
         id="path238" /><path
         d="m 1664.27,4414.18 -104.64,106.18 c -13.02,11.53 -21.27,28.33 -21.27,47.1 0,34.77 28.18,62.95 62.95,62.95 34.77,0 62.96,-28.18 62.96,-62.95 0,-1.46 -0.12,-2.88 -0.22,-4.31 l 0.43,0.07 c -0.09,1.41 -0.21,2.8 -0.21,4.24 0,34.77 28.19,62.95 62.96,62.95 34.77,0 62.95,-28.18 62.95,-62.95 0,-15.5 -5.62,-29.67 -14.91,-40.64 l 0.02,-0.02 -0.52,-0.53 c -1.71,-1.98 -3.55,-3.82 -5.49,-5.57 l -105.01,-106.52"
         style="display:none;fill:#f9abb6;fill-opacity:1;fill-rule:nonzero;stroke:none"
         id="path240" /><path
         d="m 901.793,2336.87 -104.637,106.17 c -13.019,11.54 -21.277,28.34 -21.277,47.1 0,34.77 28.187,62.96 62.961,62.96 34.765,0 62.953,-28.19 62.953,-62.96 0,-1.45 -0.121,-2.88 -0.215,-4.3 l 0.43,0.06 c -0.094,1.41 -0.215,2.81 -0.215,4.24 0,34.77 28.187,62.96 62.957,62.96 34.77,0 62.96,-28.19 62.96,-62.96 0,-15.5 -5.63,-29.67 -14.92,-40.64 l 0.02,-0.02 -0.52,-0.53 c -1.71,-1.97 -3.55,-3.82 -5.49,-5.57 L 901.793,2336.87"
         style="display:none;fill:#f9abb6;fill-opacity:1;fill-rule:nonzero;stroke:none"
         id="path242" /><path
         d="m 4459.17,1998.05 -50.46,51.2 c -6.28,5.56 -10.26,13.66 -10.26,22.71 0,16.77 13.59,30.36 30.36,30.36 16.77,0 30.36,-13.59 30.36,-30.36 l -0.11,-2.07 0.21,0.03 -0.1,2.04 c 0,16.77 13.59,30.36 30.36,30.36 16.76,0 30.35,-13.59 30.35,-30.36 0,-7.47 -2.71,-14.3 -7.19,-19.59 l 0.01,-0.01 -0.25,-0.26 c -0.83,-0.95 -1.71,-1.84 -2.65,-2.69 l -50.63,-51.36"
         style="display:none;fill:#f9abb6;fill-opacity:1;fill-rule:nonzero;stroke:none"
         id="path244" /><path
         d="m 3944.77,4470.17 -50.46,51.2 c -6.28,5.56 -10.26,13.66 -10.26,22.7 0,16.77 13.59,30.36 30.36,30.36 16.77,0 30.36,-13.59 30.36,-30.36 l -0.11,-2.07 0.21,0.03 -0.1,2.04 c 0,16.77 13.59,30.36 30.36,30.36 16.76,0 30.36,-13.59 30.36,-30.36 0,-7.47 -2.72,-14.3 -7.2,-19.59 l 0.01,-0.01 -0.25,-0.26 c -0.82,-0.95 -1.71,-1.84 -2.64,-2.68 l -50.64,-51.36"
         style="display:none;fill:#f9abb6;fill-opacity:1;fill-rule:nonzero;stroke:none"
         id="path246" /><path
         d="m 962.508,3492.61 -50.453,51.2 c -6.282,5.56 -10.262,13.66 -10.262,22.71 0,16.77 13.594,30.36 30.359,30.36 16.766,0 30.356,-13.59 30.356,-30.36 l -0.102,-2.08 0.207,0.04 -0.105,2.04 c 0,16.77 13.594,30.36 30.359,30.36 16.763,0 30.363,-13.59 30.363,-30.36 0,-7.47 -2.72,-14.31 -7.2,-19.6 l 0.01,-0.01 -0.25,-0.25 c -0.82,-0.95 -1.71,-1.84 -2.64,-2.69 l -50.642,-51.36"
         style="display:none;fill:#f9abb6;fill-opacity:1;fill-rule:nonzero;stroke:none"
         id="path248" /><path
         d="m 1599.07,2007.57 -34.42,34.93 -11.32,65.16 c 4.51,2.66 9.77,4.18 15.39,4.18 16.76,0 30.35,-13.59 30.35,-30.36 l -0.1,-2.07 0.21,0.03 -0.11,2.04 c 0,13.6 8.95,25.12 21.28,28.98 l 12,-69.13 -33.28,-33.76 m 60.72,73.92 -1.78,10.27 c 1.15,-3.21 1.78,-6.67 1.78,-10.27"
         style="display:none;fill:#666a6b;fill-opacity:1;fill-rule:nonzero;stroke:none"
         id="path250" /><path
         d="m 1201.8833,1963.5829 -16.03,16.27 c -6.28,5.56 -10.26,13.66 -10.26,22.71 0,11.15 6.01,20.9 14.97,26.18 l 11.32,-65.16"
         style="display:inline;fill:#f3f253;fill-opacity:1;fill-rule:nonzero;stroke:none"
         id="path252" /><path
         d="m 1269.5833,1962.4129 -12,69.13 c 2.87,0.9 5.92,1.38 9.08,1.38 13.16,0 24.36,-8.37 28.58,-20.08 l 1.78,-10.27 v -0.01 c 0,-7.47 -2.71,-14.3 -7.19,-19.59 l 0.01,-0.02 -0.26,-0.25 c -0.82,-0.95 -1.71,-1.84 -2.64,-2.68 l -17.36,-17.61"
         style="display:inline;fill:#f3f253;fill-opacity:1;fill-rule:nonzero;stroke:none"
         id="path254" /><path
         d="m 1830.74,240.859 c 0,-4.039 0.63,-7.468 1.88,-10.308 1.26,-2.832 2.97,-4.969 5.15,-6.399 2.19,-1.441 4.56,-2.16 7.14,-2.16 2.62,0 5.01,0.68 7.17,2.047 2.16,1.363 3.89,3.453 5.18,6.262 1.29,2.82 1.93,6.351 1.93,10.558 0,3.961 -0.64,7.371 -1.93,10.231 -1.29,2.84 -3.03,5.019 -5.23,6.539 -2.2,1.5 -4.61,2.25 -7.23,2.25 -2.72,0 -5.15,-0.77 -7.3,-2.32 -2.14,-1.539 -3.81,-3.75 -4.99,-6.637 -1.18,-2.891 -1.77,-6.25 -1.77,-10.063 z M 1860.02,219 v 1.469 c -2.01,-2.289 -3.98,-4.149 -5.92,-5.578 -1.94,-1.442 -4.05,-2.539 -6.33,-3.282 -2.27,-0.75 -4.74,-1.117 -7.43,-1.117 -3.57,0 -6.87,0.758 -9.9,2.258 -3.03,1.512 -5.66,3.672 -7.87,6.461 -2.23,2.801 -3.9,6.09 -5.05,9.871 -1.14,3.777 -1.72,7.867 -1.72,12.258 0,9.308 2.28,16.57 6.82,21.762 4.54,5.187 10.52,7.789 17.93,7.789 4.29,0 7.91,-0.739 10.85,-2.2 2.95,-1.472 5.82,-3.742 8.62,-6.793 v 21.973 c 0,3.051 0.6,5.359 1.82,6.918 1.22,1.563 2.95,2.34 5.21,2.34 2.25,0 3.98,-0.707 5.2,-2.149 1.22,-1.441 1.83,-3.55 1.83,-6.351 V 219 c 0,-2.84 -0.65,-4.961 -1.96,-6.379 -1.31,-1.41 -3,-2.129 -5.07,-2.129 -2.04,0 -3.72,0.738 -5.05,2.207 -1.32,1.481 -1.98,3.571 -1.98,6.301"
         style="display:none;fill:#ffffff;fill-opacity:1;fill-rule:nonzero;stroke:none"
         id="path256" /><path
         d="m 1896.53,245.539 h 26.99 c -0.36,5.09 -1.74,8.902 -4.12,11.422 -2.38,2.531 -5.51,3.789 -9.4,3.789 -3.71,0 -6.76,-1.27 -9.13,-3.84 -2.39,-2.558 -3.83,-6.351 -4.34,-11.371 z m 29.11,-8.449 h -29.11 c 0.04,-3.371 0.72,-6.36 2.05,-8.93 1.32,-2.59 3.08,-4.531 5.28,-5.84 2.2,-1.308 4.63,-1.961 7.28,-1.961 1.78,0 3.4,0.211 4.88,0.621 1.47,0.43 2.9,1.071 4.28,1.969 1.38,0.883 2.65,1.84 3.81,2.864 1.17,1.019 2.67,2.406 4.53,4.148 0.76,0.648 1.85,0.98 3.27,0.98 1.53,0 2.76,-0.421 3.7,-1.261 0.95,-0.84 1.43,-2.008 1.43,-3.539 0,-1.352 -0.54,-2.911 -1.58,-4.719 -1.07,-1.793 -2.65,-3.52 -4.78,-5.172 -2.13,-1.66 -4.79,-3.031 -8.01,-4.121 -3.22,-1.09 -6.91,-1.637 -11.1,-1.637 -9.55,0 -16.98,2.727 -22.29,8.18 -5.3,5.449 -7.96,12.848 -7.96,22.187 0,4.403 0.65,8.481 1.96,12.231 1.32,3.769 3.22,6.992 5.73,9.68 2.5,2.691 5.59,4.75 9.27,6.191 3.66,1.43 7.74,2.141 12.21,2.141 5.81,0 10.8,-1.211 14.95,-3.672 4.17,-2.45 7.29,-5.621 9.36,-9.508 2.06,-3.891 3.11,-7.863 3.11,-11.883 0,-3.75 -1.08,-6.168 -3.22,-7.289 -2.14,-1.098 -5.16,-1.66 -9.05,-1.66"
         style="display:none;fill:#ffffff;fill-opacity:1;fill-rule:nonzero;stroke:none"
         id="path258" /><path
         d="m 1993.45,229.961 c 0,-4.109 -1,-7.629 -3,-10.551 -2,-2.93 -4.95,-5.148 -8.86,-6.66 -3.9,-1.5 -8.66,-2.258 -14.25,-2.258 -5.34,0 -9.92,0.817 -13.74,2.457 -3.81,1.633 -6.63,3.68 -8.45,6.121 -1.82,2.469 -2.72,4.922 -2.72,7.399 0,1.64 0.57,3.031 1.74,4.191 1.16,1.16 2.64,1.742 4.42,1.742 1.56,0 2.75,-0.382 3.59,-1.14 0.84,-0.762 1.64,-1.84 2.4,-3.211 1.52,-2.66 3.35,-4.629 5.48,-5.949 2.13,-1.301 5.02,-1.961 8.7,-1.961 2.98,0 5.42,0.672 7.33,1.988 1.9,1.332 2.86,2.851 2.86,4.562 0,2.61 -0.99,4.508 -2.97,5.711 -1.98,1.2 -5.25,2.348 -9.79,3.438 -5.12,1.269 -9.29,2.609 -12.51,4.012 -3.22,1.39 -5.79,3.238 -7.71,5.527 -1.93,2.293 -2.89,5.113 -2.89,8.453 0,2.977 0.89,5.797 2.67,8.449 1.78,2.649 4.41,4.77 7.88,6.348 3.47,1.582 7.65,2.383 12.56,2.383 3.85,0 7.32,-0.403 10.38,-1.211 3.08,-0.789 5.65,-1.871 7.69,-3.219 2.06,-1.34 3.62,-2.832 4.69,-4.461 1.07,-1.641 1.61,-3.23 1.61,-4.801 0,-1.711 -0.58,-3.109 -1.72,-4.199 -1.14,-1.082 -2.77,-1.641 -4.88,-1.641 -1.53,0 -2.82,0.442 -3.89,1.321 -1.07,0.871 -2.3,2.168 -3.68,3.918 -1.13,1.453 -2.45,2.613 -3.98,3.492 -1.53,0.871 -3.6,1.309 -6.22,1.309 -2.69,0 -4.92,-0.571 -6.7,-1.719 -1.78,-1.141 -2.67,-2.571 -2.67,-4.281 0,-1.571 0.65,-2.84 1.96,-3.84 1.31,-1 3.07,-1.828 5.29,-2.481 2.22,-0.648 5.26,-1.449 9.16,-2.398 4.61,-1.129 8.38,-2.481 11.31,-4.031 2.92,-1.559 5.13,-3.411 6.65,-5.54 1.51,-2.128 2.26,-4.55 2.26,-7.269"
         style="display:none;fill:#ffffff;fill-opacity:1;fill-rule:nonzero;stroke:none"
         id="path260" /><path
         d="m 2016.01,262.551 v -43 c 0,-2.992 -0.71,-5.242 -2.12,-6.77 -1.43,-1.519 -3.22,-2.289 -5.4,-2.289 -2.19,0 -3.96,0.778 -5.32,2.348 -1.36,1.558 -2.04,3.801 -2.04,6.711 v 42.57 c 0,2.938 0.68,5.16 2.04,6.649 1.36,1.492 3.13,2.242 5.32,2.242 2.18,0 3.97,-0.75 5.4,-2.242 1.41,-1.489 2.12,-3.571 2.12,-6.219 z m -7.36,15.371 c -2.07,0 -3.84,0.637 -5.31,1.91 -1.47,1.27 -2.21,3.07 -2.21,5.398 0,2.11 0.75,3.84 2.26,5.211 1.51,1.36 3.27,2.039 5.26,2.039 1.93,0 3.64,-0.609 5.12,-1.851 1.49,-1.238 2.24,-3.027 2.24,-5.399 0,-2.289 -0.73,-4.078 -2.18,-5.371 -1.46,-1.289 -3.18,-1.937 -5.18,-1.937"
         style="display:none;fill:#ffffff;fill-opacity:1;fill-rule:nonzero;stroke:none"
         id="path262" /><path
         d="m 2038.08,241.242 c 0,-6.031 1.32,-10.601 3.95,-13.683 2.64,-3.098 6.05,-4.637 10.23,-4.637 2.46,0 4.8,0.668 7,1.988 2.2,1.332 3.99,3.332 5.37,6 1.38,2.672 2.07,5.91 2.07,9.731 0,6.058 -1.33,10.789 -4,14.168 -2.68,3.382 -6.19,5.07 -10.56,5.07 -4.25,0 -7.65,-1.617 -10.21,-4.859 -2.57,-3.219 -3.85,-7.821 -3.85,-13.778 z m 43.13,18.86 v -43.231 c 0,-4.941 -0.54,-9.191 -1.59,-12.762 -1.05,-3.55 -2.74,-6.5 -5.07,-8.828 -2.33,-2.32 -5.37,-4.051 -9.13,-5.172 -3.76,-1.129 -8.44,-1.687 -14.04,-1.687 -5.12,0 -9.7,0.707 -13.74,2.148 -4.03,1.442 -7.13,3.289 -9.32,5.559 -2.17,2.269 -3.27,4.613 -3.27,7 0,1.82 0.62,3.312 1.86,4.441 1.23,1.149 2.73,1.719 4.47,1.719 2.17,0 4.08,-0.957 5.72,-2.879 0.8,-0.98 1.62,-1.98 2.48,-2.98 0.85,-1 1.8,-1.848 2.83,-2.559 1.04,-0.699 2.29,-1.23 3.74,-1.582 1.45,-0.34 3.13,-0.519 5.01,-0.519 3.86,0 6.85,0.539 8.97,1.609 2.13,1.07 3.62,2.582 4.47,4.5 0.86,1.922 1.36,3.98 1.5,6.191 0.15,2.2 0.25,5.731 0.33,10.61 -2.29,-3.211 -4.93,-5.649 -7.94,-7.321 -2.99,-1.668 -6.56,-2.5 -10.7,-2.5 -4.98,0 -9.33,1.27 -13.06,3.813 -3.72,2.547 -6.59,6.109 -8.58,10.687 -2.01,4.582 -3,9.86 -3,15.86 0,4.472 0.61,8.511 1.82,12.101 1.22,3.602 2.96,6.641 5.21,9.11 2.25,2.468 4.85,4.332 7.79,5.59 2.94,1.25 6.18,1.871 9.71,1.871 4.21,0 7.86,-0.809 10.95,-2.422 3.09,-1.629 5.97,-4.16 8.62,-7.61 v 2.02 c 0,2.582 0.63,4.582 1.9,6 1.28,1.41 2.91,2.133 4.91,2.133 2.87,0 4.78,-0.953 5.72,-2.813 0.95,-1.879 1.43,-4.578 1.43,-8.097"
         style="display:none;fill:#ffffff;fill-opacity:1;fill-rule:nonzero;stroke:none"
         id="path264" /><path
         d="m 2104.86,262.77 v -1.801 c 2.61,3.453 5.47,5.992 8.58,7.613 3.11,1.609 6.67,2.43 10.71,2.43 3.93,0 7.43,-0.86 10.52,-2.571 3.09,-1.711 5.4,-4.132 6.92,-7.242 0.99,-1.828 1.62,-3.789 1.91,-5.89 0.29,-2.118 0.44,-4.797 0.44,-8.079 v -27.679 c 0,-2.992 -0.68,-5.242 -2.05,-6.77 -1.36,-1.519 -3.13,-2.289 -5.31,-2.289 -2.22,0 -4.01,0.778 -5.4,2.348 -1.38,1.558 -2.07,3.801 -2.07,6.711 v 24.801 c 0,4.898 -0.68,8.66 -2.04,11.25 -1.37,2.597 -4.08,3.898 -8.16,3.898 -2.64,0 -5.06,-0.789 -7.24,-2.371 -2.18,-1.578 -3.78,-3.758 -4.8,-6.52 -0.73,-2.218 -1.09,-6.347 -1.09,-12.418 v -18.64 c 0,-3.02 -0.7,-5.289 -2.1,-6.801 -1.39,-1.5 -3.2,-2.258 -5.42,-2.258 -2.15,0 -3.91,0.778 -5.29,2.348 -1.38,1.558 -2.07,3.801 -2.07,6.711 v 43 c 0,2.84 0.62,4.961 1.85,6.359 1.24,1.391 2.93,2.102 5.07,2.102 1.31,0 2.49,-0.313 3.55,-0.942 1.05,-0.621 1.9,-1.539 2.53,-2.769 0.64,-1.242 0.96,-2.75 0.96,-4.531"
         style="display:none;fill:#ffffff;fill-opacity:1;fill-rule:nonzero;stroke:none"
         id="path266" /><path
         d="m 2166.28,245.539 h 26.99 c -0.37,5.09 -1.74,8.902 -4.12,11.422 -2.38,2.531 -5.51,3.789 -9.4,3.789 -3.71,0 -6.76,-1.27 -9.14,-3.84 -2.38,-2.558 -3.82,-6.351 -4.33,-11.371 z m 29.11,-8.449 h -29.11 c 0.04,-3.371 0.72,-6.36 2.05,-8.93 1.33,-2.59 3.09,-4.531 5.29,-5.84 2.19,-1.308 4.62,-1.961 7.27,-1.961 1.78,0 3.41,0.211 4.89,0.621 1.46,0.43 2.89,1.071 4.27,1.969 1.38,0.883 2.65,1.84 3.82,2.864 1.16,1.019 2.67,2.406 4.52,4.148 0.76,0.648 1.85,0.98 3.27,0.98 1.53,0 2.77,-0.421 3.71,-1.261 0.94,-0.84 1.41,-2.008 1.41,-3.539 0,-1.352 -0.52,-2.911 -1.58,-4.719 -1.05,-1.793 -2.64,-3.52 -4.77,-5.172 -2.13,-1.66 -4.79,-3.031 -8.01,-4.121 -3.21,-1.09 -6.91,-1.637 -11.09,-1.637 -9.56,0 -16.99,2.727 -22.3,8.18 -5.3,5.449 -7.96,12.848 -7.96,22.187 0,4.403 0.66,8.481 1.96,12.231 1.31,3.769 3.22,6.992 5.73,9.68 2.51,2.691 5.6,4.75 9.27,6.191 3.67,1.43 7.74,2.141 12.21,2.141 5.81,0 10.8,-1.211 14.96,-3.672 4.16,-2.45 7.28,-5.621 9.35,-9.508 2.07,-3.891 3.11,-7.863 3.11,-11.883 0,-3.75 -1.07,-6.168 -3.22,-7.289 -2.14,-1.098 -5.16,-1.66 -9.05,-1.66"
         style="display:none;fill:#ffffff;fill-opacity:1;fill-rule:nonzero;stroke:none"
         id="path268" /><path
         d="m 2226.78,240.859 c 0,-4.039 0.63,-7.468 1.88,-10.308 1.26,-2.832 2.97,-4.969 5.16,-6.399 2.18,-1.441 4.56,-2.16 7.14,-2.16 2.62,0 5,0.68 7.16,2.047 2.17,1.363 3.9,3.453 5.18,6.262 1.29,2.82 1.94,6.351 1.94,10.558 0,3.961 -0.65,7.371 -1.94,10.231 -1.28,2.84 -3.03,5.019 -5.23,6.539 -2.2,1.5 -4.61,2.25 -7.22,2.25 -2.73,0 -5.16,-0.77 -7.31,-2.32 -2.14,-1.539 -3.8,-3.75 -4.99,-6.637 -1.18,-2.891 -1.77,-6.25 -1.77,-10.063 z M 2256.05,219 v 1.469 c -1.99,-2.289 -3.96,-4.149 -5.91,-5.578 -1.94,-1.442 -4.05,-2.539 -6.32,-3.282 -2.27,-0.75 -4.75,-1.117 -7.44,-1.117 -3.57,0 -6.86,0.758 -9.89,2.258 -3.04,1.512 -5.66,3.672 -7.88,6.461 -2.22,2.801 -3.9,6.09 -5.04,9.871 -1.15,3.777 -1.72,7.867 -1.72,12.258 0,9.308 2.27,16.57 6.81,21.762 4.54,5.187 10.52,7.789 17.94,7.789 4.29,0 7.9,-0.739 10.85,-2.2 2.94,-1.472 5.81,-3.742 8.6,-6.793 v 21.973 c 0,3.051 0.62,5.359 1.83,6.918 1.22,1.563 2.96,2.34 5.21,2.34 2.25,0 3.99,-0.707 5.2,-2.149 1.22,-1.441 1.83,-3.55 1.83,-6.351 V 219 c 0,-2.84 -0.65,-4.961 -1.96,-6.379 -1.31,-1.41 -2.99,-2.129 -5.07,-2.129 -2.03,0 -3.71,0.738 -5.04,2.207 -1.33,1.481 -2,3.571 -2,6.301"
         style="display:none;fill:#ffffff;fill-opacity:1;fill-rule:nonzero;stroke:none"
         id="path270" /><path
         d="m 2317.59,240.422 c 0,-5.93 1.35,-10.473 4.06,-13.652 2.71,-3.18 6.26,-4.778 10.66,-4.778 3.74,0 6.97,1.629 9.67,4.879 2.71,3.258 4.06,7.918 4.06,13.988 0,3.922 -0.55,7.301 -1.68,10.141 -1.13,2.832 -2.73,5.02 -4.8,6.559 -2.07,1.55 -4.49,2.32 -7.25,2.32 -2.83,0 -5.37,-0.77 -7.58,-2.32 -2.22,-1.539 -3.96,-3.77 -5.23,-6.7 -1.27,-2.918 -1.91,-6.41 -1.91,-10.437 z m -0.71,44.207 v -22.731 c 2.8,2.911 5.65,5.141 8.56,6.684 2.91,1.539 6.51,2.309 10.8,2.309 4.94,0 9.27,-1.172 13,-3.512 3.72,-2.348 6.61,-5.75 8.66,-10.199 2.06,-4.438 3.09,-9.731 3.09,-15.84 0,-4.5 -0.58,-8.629 -1.72,-12.399 -1.15,-3.75 -2.81,-7.019 -4.99,-9.781 -2.18,-2.758 -4.83,-4.898 -7.93,-6.41 -3.11,-1.5 -6.54,-2.258 -10.28,-2.258 -2.29,0 -4.45,0.27 -6.46,0.817 -2.02,0.55 -3.74,1.261 -5.15,2.152 -1.41,0.891 -2.62,1.809 -3.62,2.758 -1,0.941 -2.32,2.363 -3.96,4.25 V 219 c 0,-2.801 -0.67,-4.918 -2.02,-6.359 -1.34,-1.43 -3.05,-2.149 -5.12,-2.149 -2.11,0 -3.79,0.719 -5.04,2.149 -1.26,1.441 -1.88,3.558 -1.88,6.359 v 64.98 c 0,3.02 0.61,5.301 1.82,6.84 1.22,1.539 2.92,2.309 5.1,2.309 2.29,0 4.05,-0.727 5.29,-2.199 1.23,-1.481 1.85,-3.571 1.85,-6.301"
         style="display:none;fill:#ffffff;fill-opacity:1;fill-rule:nonzero;stroke:none"
         id="path272" /><path
         d="m 2380.28,208.641 1.36,3.328 -18.32,46.113 c -1.12,2.648 -1.69,4.578 -1.69,5.777 0,1.282 0.33,2.45 0.98,3.543 0.66,1.09 1.56,1.969 2.7,2.618 1.15,0.66 2.34,0.992 3.57,0.992 2.14,0 3.76,-0.692 4.86,-2.051 1.09,-1.359 2.05,-3.313 2.88,-5.859 l 12.6,-36.633 11.94,34.07 c 0.94,2.75 1.79,4.922 2.56,6.492 0.76,1.559 1.57,2.61 2.42,3.149 0.85,0.55 2.06,0.832 3.63,0.832 1.13,0 2.21,-0.301 3.24,-0.91 1.04,-0.602 1.83,-1.411 2.4,-2.422 0.56,-1.02 0.85,-2.09 0.85,-3.219 -0.15,-0.691 -0.38,-1.672 -0.71,-2.941 -0.33,-1.27 -0.73,-2.571 -1.2,-3.868 l -19.41,-50.812 c -1.67,-4.469 -3.31,-7.969 -4.91,-10.52 -1.6,-2.539 -3.71,-4.5 -6.35,-5.859 -2.63,-1.359 -6.18,-2.039 -10.65,-2.039 -4.36,0 -7.64,0.469 -9.81,1.41 -2.19,0.949 -3.27,2.68 -3.27,5.18 0,1.707 0.51,3.027 1.55,3.957 1.03,0.922 2.57,1.39 4.6,1.39 l 2.35,-0.339 c 0.94,-0.211 1.76,-0.321 2.45,-0.321 1.7,0 3.05,0.25 4.04,0.77 0.97,0.5 1.85,1.383 2.64,2.64 0.78,1.25 1.68,3.102 2.7,5.532"
         style="display:none;fill:#ffffff;fill-opacity:1;fill-rule:nonzero;stroke:none"
         id="path274" /><path
         d="m 2595.86,269.711 h 3.55 v 4.469 c 0,4.679 0.58,8.371 1.76,11.121 1.17,2.75 3.19,4.738 6.01,6 2.82,1.238 6.68,1.871 11.57,1.871 8.73,0 13.05,-2.113 13.05,-6.391 0,-1.371 -0.46,-2.551 -1.38,-3.531 -0.89,-0.969 -1.97,-1.469 -3.2,-1.469 -0.57,0 -1.6,0.098 -3.03,0.34 -1.36,0.188 -2.59,0.32 -3.57,0.32 -2.69,0 -4.4,-0.812 -5.2,-2.382 -0.73,-1.579 -1.12,-3.84 -1.12,-6.797 v -3.551 h 3.63 c 5.69,0 8.5,-1.699 8.5,-5.129 0,-2.41 -0.72,-3.973 -2.25,-4.621 -1.5,-0.66 -3.58,-0.981 -6.25,-0.981 h -3.63 v -39.441 c 0,-2.93 -0.69,-5.168 -2.12,-6.699 -1.38,-1.57 -3.18,-2.34 -5.41,-2.34 -2.11,0 -3.85,0.77 -5.27,2.34 -1.4,1.531 -2.09,3.769 -2.09,6.699 v 39.441 h -4.09 c -2.23,0 -3.92,0.481 -5.13,1.5 -1.2,0.981 -1.81,2.29 -1.81,3.891 0,3.578 2.5,5.34 7.48,5.34"
         style="display:none;fill:#ffffff;fill-opacity:1;fill-rule:nonzero;stroke:none"
         id="path276" /><path
         d="m 2644.59,231.98 v -12.441 c 0,-3 -0.76,-5.269 -2.15,-6.769 -1.42,-1.52 -3.2,-2.27 -5.38,-2.27 -2.19,0 -3.94,0.762 -5.32,2.301 -1.35,1.519 -2.07,3.769 -2.07,6.738 v 41.453 c 0,6.699 2.41,10.039 7.24,10.039 2.49,0 4.26,-0.769 5.36,-2.34 1.09,-1.57 1.69,-3.871 1.82,-6.929 1.77,3.058 3.58,5.359 5.44,6.929 1.91,1.571 4.38,2.34 7.52,2.34 3.15,0 6.15,-0.769 9.1,-2.34 2.95,-1.57 4.42,-3.652 4.42,-6.23 0,-1.801 -0.63,-3.332 -1.87,-4.481 -1.26,-1.199 -2.61,-1.789 -4.05,-1.789 -0.57,0 -1.9,0.36 -3.98,1.028 -2.09,0.652 -3.95,0.992 -5.52,0.992 -2.18,0 -3.98,-0.582 -5.35,-1.699 -1.39,-1.18 -2.47,-2.86 -3.24,-5.09 -0.74,-2.27 -1.25,-4.973 -1.56,-8.063 -0.28,-3.117 -0.41,-6.91 -0.41,-11.379"
         style="display:none;fill:#ffffff;fill-opacity:1;fill-rule:nonzero;stroke:none"
         id="path278" /><path
         d="m 2683.88,245.57 h 26.99 c -0.36,5.078 -1.71,8.891 -4.1,11.399 -2.4,2.543 -5.51,3.793 -9.42,3.793 -3.7,0 -6.75,-1.262 -9.13,-3.84 -2.38,-2.563 -3.84,-6.34 -4.34,-11.352 m 29.13,-8.461 h -29.13 c 0.05,-3.379 0.72,-6.379 2.04,-8.949 1.35,-2.558 3.1,-4.508 5.31,-5.828 2.2,-1.312 4.61,-1.953 7.28,-1.953 1.78,0 3.4,0.191 4.87,0.633 1.46,0.398 2.9,1.07 4.28,1.957 1.39,0.883 2.64,1.832 3.81,2.871 1.16,1 2.68,2.39 4.54,4.129 0.77,0.652 1.86,0.992 3.26,0.992 1.54,0 2.76,-0.422 3.72,-1.27 0.96,-0.839 1.4,-2.011 1.4,-3.539 0,-1.351 -0.51,-2.922 -1.54,-4.703 -1.07,-1.82 -2.65,-3.539 -4.79,-5.199 -2.15,-1.641 -4.82,-3.031 -8.02,-4.102 -3.22,-1.097 -6.93,-1.648 -11.09,-1.648 -9.59,0 -17.01,2.719 -22.31,8.172 -5.3,5.457 -7.98,12.859 -7.98,22.199 0,4.399 0.67,8.481 1.99,12.25 1.29,3.777 3.2,6.981 5.73,9.68 2.5,2.711 5.57,4.758 9.26,6.191 3.66,1.43 7.73,2.149 12.21,2.149 5.8,0 10.8,-1.231 14.96,-3.711 4.15,-2.418 7.31,-5.598 9.35,-9.489 2.07,-3.91 3.11,-7.851 3.11,-11.902 0,-3.73 -1.08,-6.148 -3.22,-7.269 -2.14,-1.11 -5.15,-1.661 -9.04,-1.661"
         style="display:none;fill:#ffffff;fill-opacity:1;fill-rule:nonzero;stroke:none"
         id="path280" /><path
         d="m 2745.8,245.57 h 26.98 c -0.36,5.078 -1.74,8.891 -4.1,11.399 -2.42,2.543 -5.52,3.793 -9.43,3.793 -3.7,0 -6.75,-1.262 -9.14,-3.84 -2.37,-2.563 -3.83,-6.34 -4.31,-11.352 m 29.12,-8.461 h -29.12 c 0.03,-3.379 0.72,-6.379 2.04,-8.949 1.32,-2.558 3.09,-4.508 5.28,-5.828 2.2,-1.312 4.63,-1.953 7.3,-1.953 1.76,0 3.4,0.191 4.85,0.633 1.48,0.398 2.9,1.07 4.3,1.957 1.39,0.883 2.64,1.832 3.81,2.871 1.15,1 2.66,2.39 4.52,4.129 0.78,0.652 1.88,0.992 3.27,0.992 1.54,0 2.77,-0.422 3.73,-1.27 0.95,-0.839 1.38,-2.011 1.38,-3.539 0,-1.351 -0.5,-2.922 -1.57,-4.703 -1.01,-1.82 -2.61,-3.539 -4.76,-5.199 -2.13,-1.641 -4.82,-3.031 -8.01,-4.102 -3.2,-1.097 -6.94,-1.648 -11.11,-1.648 -9.56,0 -16.98,2.719 -22.3,8.172 -5.31,5.457 -7.97,12.859 -7.97,22.199 0,4.399 0.66,8.481 1.99,12.25 1.3,3.777 3.21,6.981 5.72,9.68 2.5,2.711 5.58,4.758 9.26,6.191 3.66,1.43 7.75,2.149 12.22,2.149 5.79,0 10.78,-1.231 15,-3.711 4.13,-2.418 7.26,-5.598 9.3,-9.489 2.07,-3.91 3.13,-7.851 3.13,-11.902 0,-3.73 -1.1,-6.148 -3.22,-7.269 -2.15,-1.11 -5.16,-1.661 -9.04,-1.661"
         style="display:none;fill:#ffffff;fill-opacity:1;fill-rule:nonzero;stroke:none"
         id="path282" /><path
         d="m 2836.69,241.039 c 0,3.922 -0.61,7.301 -1.8,10.113 -1.2,2.828 -2.86,4.977 -4.97,6.477 -2.11,1.5 -4.49,2.273 -7.07,2.273 -4.1,0 -7.57,-1.632 -10.38,-4.843 -2.83,-3.25 -4.25,-8.008 -4.25,-14.309 0,-5.891 1.4,-10.52 4.22,-13.809 2.8,-3.289 6.23,-4.929 10.41,-4.929 2.46,0 4.76,0.718 6.87,2.14 2.13,1.45 3.81,3.598 5.07,6.469 1.27,2.879 1.9,6.348 1.9,10.418 m -29.17,21.621 v -1.781 c 2.79,3.441 5.7,5.98 8.74,7.601 2.98,1.629 6.42,2.45 10.23,2.45 4.57,0 8.82,-1.2 12.67,-3.551 3.85,-2.367 6.88,-5.82 9.12,-10.367 2.24,-4.563 3.36,-9.922 3.36,-16.141 0,-4.57 -0.64,-8.789 -1.93,-12.641 -1.28,-3.832 -3.08,-7.039 -5.32,-9.64 -2.26,-2.578 -4.91,-4.598 -7.98,-6 -3.11,-1.379 -6.38,-2.09 -9.92,-2.09 -4.23,0 -7.83,0.859 -10.7,2.57 -2.89,1.68 -5.64,4.211 -8.27,7.5 v -22.34 c 0,-6.519 -2.39,-9.82 -7.14,-9.82 -2.82,0 -4.65,0.84 -5.58,2.52 -0.87,1.722 -1.34,4.16 -1.34,7.41 v 64.25 c 0,2.84 0.61,4.93 1.84,6.351 1.23,1.379 2.93,2.09 5.08,2.09 2.11,0 3.82,-0.711 5.14,-2.14 1.35,-1.461 2,-3.512 2,-6.231"
         style="display:none;fill:#ffffff;fill-opacity:1;fill-rule:nonzero;stroke:none"
         id="path284" /><path
         d="m 2874,262.59 v -43.059 c 0,-2.961 -0.71,-5.211 -2.12,-6.73 -1.44,-1.539 -3.22,-2.301 -5.41,-2.301 -2.18,0 -3.92,0.77 -5.32,2.34 -1.34,1.582 -2.04,3.812 -2.04,6.691 v 42.629 c 0,2.93 0.7,5.129 2.04,6.629 1.4,1.512 3.14,2.242 5.32,2.242 2.19,0 3.97,-0.73 5.41,-2.242 1.41,-1.5 2.12,-3.57 2.12,-6.199 m -7.37,15.371 c -2.08,0 -3.84,0.66 -5.3,1.918 -1.49,1.281 -2.22,3.062 -2.22,5.383 0,2.109 0.75,3.84 2.27,5.218 1.51,1.352 3.26,2.04 5.25,2.04 1.95,0 3.65,-0.61 5.13,-1.829 1.49,-1.261 2.24,-3.07 2.24,-5.429 0,-2.301 -0.73,-4.082 -2.17,-5.371 -1.46,-1.27 -3.18,-1.93 -5.2,-1.93"
         style="display:none;fill:#ffffff;fill-opacity:1;fill-rule:nonzero;stroke:none"
         id="path286" /><path
         d="m 2921.98,217.301 -13.11,21.609 -8.08,-7.621 V 219.43 c 0,-2.86 -0.76,-5.059 -2.28,-6.59 -1.47,-1.57 -3.25,-2.34 -5.2,-2.34 -2.29,0 -4.1,0.762 -5.4,2.301 -1.3,1.519 -1.97,3.769 -1.97,6.738 v 63.5 c 0,3.293 0.66,5.801 1.9,7.543 1.28,1.75 3.13,2.59 5.47,2.59 2.29,0 4.09,-0.781 5.45,-2.359 1.34,-1.551 2.03,-3.864 2.03,-6.903 v -36.109 l 16.73,17.57 c 2.08,2.16 3.64,3.68 4.75,4.469 1.09,0.789 2.4,1.191 3.96,1.191 1.87,0 3.41,-0.59 4.68,-1.769 1.21,-1.18 1.84,-2.672 1.84,-4.442 0,-2.168 -2.03,-5.101 -6.06,-8.73 l -7.9,-7.25 15.26,-24 c 1.11,-1.801 1.95,-3.129 2.43,-4.051 0.49,-0.918 0.75,-1.84 0.75,-2.66 0,-2.367 -0.66,-4.207 -1.96,-5.59 -1.29,-1.359 -3,-2.039 -5.08,-2.039 -1.82,0 -3.24,0.469 -4.21,1.469 -0.98,1 -2.34,2.781 -4,5.332"
         style="display:none;fill:#ffffff;fill-opacity:1;fill-rule:nonzero;stroke:none"
         id="path288" /><path
         d="m 2954.32,210.5 c -2.24,0 -4.17,0.73 -5.81,2.191 -1.63,1.43 -2.46,3.481 -2.46,6.11 0,2.211 0.79,4.129 2.35,5.711 1.57,1.609 3.49,2.41 5.78,2.41 2.29,0 4.22,-0.801 5.87,-2.371 1.6,-1.582 2.42,-3.512 2.42,-5.75 0,-2.59 -0.82,-4.641 -2.42,-6.082 -1.65,-1.489 -3.55,-2.219 -5.73,-2.219"
         style="display:none;fill:#ffffff;fill-opacity:1;fill-rule:nonzero;stroke:none"
         id="path290" /><path
         d="m 3028.35,228.93 c 0,-1.84 -0.55,-3.828 -1.67,-5.938 -1.1,-2.121 -2.8,-4.121 -5.08,-6.023 -2.26,-1.91 -5.12,-3.457 -8.58,-4.617 -3.45,-1.161 -7.35,-1.762 -11.65,-1.762 -9.22,0 -16.41,2.699 -21.57,8.051 -5.14,5.371 -7.72,12.558 -7.72,21.578 0,6.121 1.17,11.511 3.55,16.211 2.34,4.672 5.76,8.3 10.22,10.859 4.47,2.582 9.85,3.852 16.04,3.852 3.86,0 7.39,-0.559 10.63,-1.692 3.22,-1.117 5.92,-2.59 8.18,-4.359 2.22,-1.801 3.93,-3.688 5.1,-5.692 1.19,-2.019 1.77,-3.906 1.77,-5.668 0,-1.769 -0.65,-3.281 -1.97,-4.519 -1.35,-1.231 -2.96,-1.859 -4.81,-1.859 -1.26,0 -2.29,0.328 -3.11,0.949 -0.82,0.648 -1.75,1.668 -2.75,3.121 -1.82,2.738 -3.71,4.828 -5.71,6.187 -1.97,1.391 -4.48,2.082 -7.54,2.082 -4.37,0 -7.94,-1.711 -10.64,-5.152 -2.68,-3.418 -4.03,-8.148 -4.03,-14.09 0,-2.797 0.36,-5.39 1.05,-7.73 0.67,-2.34 1.67,-4.34 2.98,-5.989 1.32,-1.648 2.89,-2.898 4.74,-3.761 1.86,-0.879 3.91,-1.289 6.11,-1.289 2.99,0 5.55,0.691 7.67,2.062 2.16,1.387 4.03,3.488 5.66,6.328 0.91,1.672 1.88,2.969 2.92,3.922 1.05,0.938 2.35,1.438 3.88,1.438 1.82,0 3.33,-0.711 4.51,-2.09 1.21,-1.371 1.82,-2.86 1.82,-4.41"
         style="display:none;fill:#ffffff;fill-opacity:1;fill-rule:nonzero;stroke:none"
         id="path292" /><path
         d="m 3077.64,240.75 c 0,6.082 -1.35,10.801 -4.01,14.172 -2.66,3.418 -6.26,5.098 -10.76,5.098 -2.91,0 -5.48,-0.758 -7.7,-2.258 -2.22,-1.5 -3.91,-3.731 -5.11,-6.68 -1.2,-2.953 -1.81,-6.391 -1.81,-10.332 0,-3.891 0.59,-7.27 1.78,-10.168 1.19,-2.941 2.88,-5.152 5.08,-6.703 2.22,-1.527 4.79,-2.32 7.76,-2.32 4.5,0 8.1,1.703 10.76,5.121 2.66,3.39 4.01,8.101 4.01,14.07 m 14.94,0 c 0,-4.41 -0.7,-8.508 -2.04,-12.27 -1.42,-3.738 -3.4,-6.96 -6.03,-9.628 -2.61,-2.7 -5.75,-4.762 -9.36,-6.2 -3.67,-1.422 -7.75,-2.16 -12.28,-2.16 -4.5,0 -8.57,0.738 -12.17,2.199 -3.58,1.43 -6.72,3.528 -9.33,6.211 -2.65,2.739 -4.64,5.938 -6.04,9.618 -1.32,3.699 -2.01,7.781 -2.01,12.23 0,4.52 0.71,8.648 2.06,12.391 1.39,3.757 3.38,6.961 5.96,9.601 2.59,2.649 5.7,4.688 9.36,6.149 3.69,1.429 7.75,2.14 12.17,2.14 4.5,0 8.6,-0.711 12.28,-2.191 3.66,-1.438 6.79,-3.52 9.43,-6.188 2.63,-2.73 4.61,-5.91 5.97,-9.601 1.34,-3.742 2.03,-7.809 2.03,-12.301"
         style="display:none;fill:#ffffff;fill-opacity:1;fill-rule:nonzero;stroke:none"
         id="path294" /><path
         d="m 3149.35,239.66 v -19.781 c 0,-3.137 -0.69,-5.457 -2.12,-7.039 -1.43,-1.57 -3.28,-2.348 -5.61,-2.348 -2.25,0 -4.09,0.778 -5.46,2.348 -1.42,1.582 -2.13,3.902 -2.13,7.039 v 23.711 c 0,3.75 -0.12,6.672 -0.37,8.75 -0.26,2.031 -0.96,3.762 -2.08,5.07 -1.12,1.352 -2.92,2.012 -5.34,2.012 -4.88,0 -8.07,-1.66 -9.62,-5.051 -1.54,-3.312 -2.33,-8.109 -2.33,-14.391 v -20.101 c 0,-3.09 -0.7,-5.43 -2.08,-7.02 -1.43,-1.57 -3.25,-2.367 -5.53,-2.367 -2.27,0 -4.12,0.797 -5.55,2.367 -1.45,1.59 -2.16,3.93 -2.16,7.02 v 42.582 c 0,2.809 0.64,4.941 1.92,6.379 1.32,1.48 3.02,2.191 5.11,2.191 2.04,0 3.74,-0.699 5.12,-2.039 1.35,-1.363 2.03,-3.25 2.03,-5.652 v -1.399 c 2.6,3.071 5.36,5.34 8.29,6.77 2.96,1.488 6.21,2.219 9.83,2.219 3.74,0 6.95,-0.75 9.63,-2.239 2.69,-1.5 4.9,-3.761 6.66,-6.75 2.52,3.028 5.21,5.289 8.09,6.77 2.87,1.48 6.04,2.219 9.54,2.219 4.05,0 7.58,-0.821 10.53,-2.41 2.92,-1.598 5.12,-3.899 6.58,-6.86 1.27,-2.711 1.9,-6.941 1.9,-12.719 v -29.062 c 0,-3.137 -0.7,-5.457 -2.11,-7.039 -1.41,-1.57 -3.3,-2.348 -5.62,-2.348 -2.27,0 -4.1,0.797 -5.54,2.367 -1.43,1.59 -2.16,3.93 -2.16,7.02 v 25.031 c 0,3.211 -0.13,5.762 -0.4,7.68 -0.27,1.941 -1.01,3.562 -2.19,4.859 -1.22,1.313 -3.05,1.973 -5.47,1.973 -1.96,0 -3.83,-0.613 -5.59,-1.762 -1.76,-1.14 -3.14,-2.738 -4.14,-4.66 -1.06,-2.52 -1.63,-6.961 -1.63,-13.34"
         style="display:none;fill:#ffffff;fill-opacity:1;fill-rule:nonzero;stroke:none"
         id="path296" /><path
         d="m 2456.58,244.359 -0.01,0.102 0.01,-0.102"
         style="display:none;fill:#ffffff;fill-opacity:1;fill-rule:nonzero;stroke:none"
         id="path298" /><path
         d="m 2457.33,239.602 h 0.02 c -0.29,1.359 -0.51,2.699 -0.68,4.027 0.17,-1.34 0.39,-2.688 0.66,-4.027"
         style="display:none;fill:#ffffff;fill-opacity:1;fill-rule:nonzero;stroke:none"
         id="path300" /><path
         d="m 2462.26,225.789 -0.1,0.191 0.1,-0.191"
         style="display:none;fill:#ffffff;fill-opacity:1;fill-rule:nonzero;stroke:none"
         id="path302" /><path
         d="m 2461.79,226.711 -0.38,0.769 0.38,-0.769"
         style="display:none;fill:#ffffff;fill-opacity:1;fill-rule:nonzero;stroke:none"
         id="path304" /><path
         d="m 2458.72,234.281 c 0.73,-2.301 1.6,-4.519 2.62,-6.652 -1.03,2.172 -1.89,4.402 -2.6,6.652 h -0.02"
         style="display:none;fill:#ffffff;fill-opacity:1;fill-rule:nonzero;stroke:none"
         id="path306" /><path
         d="m 2514.19,301.391 c 2.88,0 5,-0.231 7.43,-0.641 l 0.69,4.379 c 0,0 -6.72,2.07 -15.55,1.34 l -0.7,2.383 c 2.75,0.578 4.81,3.019 4.81,5.937 0,3.34 -2.72,6.051 -6.07,6.051 -3.34,0 -6.06,-2.711 -6.06,-6.051 0,-2.918 2.06,-5.359 4.8,-5.937 l 0.77,-2.653 c -9.38,-1.289 -16.85,-4.949 -16.85,-4.949 l 1.33,-4.051 c 5.67,1.891 10.59,3.043 15.06,3.52 4.37,0.472 7.66,0.672 10.34,0.672"
         style="display:none;fill:#ffffff;fill-opacity:1;fill-rule:nonzero;stroke:none"
         id="path308" /><path
         d="m 2462.15,279.242 0.03,0.047 0.65,0.82 -1.79,1.293 -2.8,2.047 c -0.16,-0.219 -4.57,-4.269 -8.05,-11.758 l -0.51,0.688 c -1.05,1.141 -2.5,1.723 -4.36,1.691 h -0.08 c -1.15,0 -1.93,0.379 -2.45,0.84 0.51,0.649 0.82,1.469 0.82,2.371 0,2.117 -1.72,3.84 -3.84,3.84 -2.12,0 -3.84,-1.723 -3.84,-3.84 0,-2.121 1.72,-3.84 3.84,-3.84 l 0.96,0.118 c 0.94,-1.047 2.44,-1.957 4.63,-1.918 1.13,0.011 1.96,-0.282 2.51,-0.891 l 0.92,-2.449 -0.02,-0.031 c -2.5,-6.829 -1.78,-15.321 -1.78,-15.321 l 6.07,-0.25 c 0.12,3.102 0.56,8.512 2.13,12.813 3.02,8.308 6.8,13.508 6.96,13.73"
         style="display:none;fill:#ffffff;fill-opacity:1;fill-rule:nonzero;stroke:none"
         id="path310" /><path
         d="m 2566.99,296.32 c -2.11,0 -3.84,-1.718 -3.84,-3.84 l 0.13,-0.949 c -1.05,-0.949 -1.96,-2.461 -1.93,-4.652 0.02,-1.129 -0.27,-1.949 -0.88,-2.508 l -1.7,-0.812 c -4.52,6.332 -10.08,10.191 -10.08,10.191 l -4.36,-4.668 c 3.29,-2.992 6.66,-6.742 9.92,-11.422 2.26,-3.23 4.59,-7.398 6.52,-11.558 l 5.88,2.789 c 0,0 -2.68,6.629 -6.46,12.578 l 1.9,1.101 c 1.15,1.039 1.71,2.512 1.68,4.352 -0.01,1.199 0.38,2 0.85,2.539 l 2.37,-0.82 c 2.13,0 3.84,1.718 3.84,3.839 0,2.122 -1.71,3.84 -3.84,3.84"
         style="display:none;fill:#ffffff;fill-opacity:1;fill-rule:nonzero;stroke:none"
         id="path312" /><path
         d="m 2551.74,243.5 c -8.09,-3.937 -21.4,-9.148 -38.92,-11.59 -6.88,-0.949 -13.54,-1.301 -19.68,-1.301 -7.98,0 -15.03,0.59 -20.44,1.27 -6.18,0.781 -11.01,1.73 -13.96,2.402 0.71,-2.25 1.57,-4.48 2.6,-6.652 l 0.07,-0.149 0.38,-0.769 0.37,-0.731 0.1,-0.191 c 1.74,-3.269 3.82,-6.277 6.2,-8.891 8.27,-9.039 16.69,-10.468 16.77,-10.476 l 0.13,-0.02 0.12,-0.043 c 0.08,-0.027 7.54,-2.437 18.89,-2.437 11.17,0 22.12,2.25 32.57,6.699 7.73,3.961 15.04,9.961 18.67,15.32 2.8,4.149 4.83,8.571 6.03,13.168 0.64,2.442 1.14,6.352 0.84,10.473 -2.27,-1.531 -5.87,-3.711 -10.74,-6.082"
         style="display:none;fill:#ffffff;fill-opacity:1;fill-rule:nonzero;stroke:none"
         id="path314" /><path
         d="m 2487.86,281.551 c 8.94,0 16.17,-7.242 16.17,-16.172 0,-8.93 -7.23,-16.149 -16.17,-16.149 -8.92,0 -16.16,7.219 -16.16,16.149 0,8.93 7.24,16.172 16.16,16.172 z m 47.31,-0.399 c 5.51,0 10,-4.48 10,-10 0,-5.523 -4.49,-10.011 -10,-10.011 -5.53,0 -10,4.488 -10,10.011 0,5.52 4.47,10 10,10 z m -70.42,-3.82 c -0.24,-0.34 -3.75,-5.312 -6.52,-12.934 -2.08,-5.718 -1.98,-14.027 -1.98,-14.117 v -0.019 c 0,-1.949 0.1,-3.883 0.32,-5.801 l 0.01,-0.102 0.09,-0.73 c 0.17,-1.328 0.39,-2.668 0.68,-4.027 4.02,-1.02 28,-6.61 54.8,-2.883 16.8,2.34 29.56,7.301 37.3,11.062 6.44,3.117 10.57,5.938 12.17,7.11 -1.59,5.898 -5.98,15.148 -10.01,20.922 -11.5,16.449 -23.91,20.667 -30.28,21.718 -2.44,0.399 -4.38,0.617 -7.14,0.617 -2.57,0 -5.75,-0.199 -10,-0.648 -4.27,-0.437 -9.02,-1.57 -14.54,-3.418 -7.73,-2.59 -14.73,-6.652 -20.24,-11.75 l -0.19,-0.184 c -0.81,-0.746 -2.52,-2.328 -4.47,-4.816"
         style="display:none;fill:#ffffff;fill-opacity:1;fill-rule:nonzero;stroke:none"
         id="path316" /></g></g></svg>
